<?xml version="1.0" encoding="utf-8"?>
<!-- Generator: Adobe Illustrator 24.0.1, SVG Export Plug-In . SVG Version: 6.00 Build 0)  -->
<svg version="1.1" id="Layer_1" xmlns="http://www.w3.org/2000/svg" xmlns:xlink="http://www.w3.org/1999/xlink" x="0px" y="0px"
	 viewBox="0 0 1000 1000" style="enable-background:new 0 0 1000 1000;" xml:space="preserve">
<style type="text/css">
	.st0{fill:#287A9F;}
	.st1{fill:#FFFFFF;}
</style>
<rect class="st0" width="1000" height="1000"/>
<g>
	<path class="st1" d="M625.5,584L625.5,584c23.1,0,41.5,18.4,41.5,41.5l0,0c0,23.1-18.4,41.5-41.5,41.5l0,0
		c-23.1,0-41.5-18.4-41.5-41.5l0,0C584,602.4,602.8,584,625.5,584z"/>
	<path class="st1" d="M625.5,458.3L625.5,458.3c23.1,0,41.5,18.4,41.5,41.5l0,0c0,23.1-18.4,41.5-41.5,41.5l0,0
		c-23.1,0-41.5-18.4-41.5-41.5l0,0C584,477.1,602.8,458.3,625.5,458.3z"/>
	<path class="st1" d="M500.2,584L500.2,584c23.1,0,41.5,18.4,41.5,41.5l0,0c0,23.1-18.4,41.5-41.5,41.5l0,0
		c-23.1,0-41.5-18.4-41.5-41.5l0,0C458.7,602.4,477.1,584,500.2,584z"/>
	<path class="st1" d="M500.2,458.3L500.2,458.3c23.1,0,41.5,18.4,41.5,41.5l0,0c0,23.1-18.4,41.5-41.5,41.5l0,0
		c-23.1,0-41.5-18.4-41.5-41.5l0,0C458.7,477.1,477.1,458.3,500.2,458.3z"/>
	<path class="st1" d="M374.5,584L374.5,584c23.1,0,41.5,18.4,41.5,41.5l0,0c0,23.1-18.4,41.5-41.5,41.5l0,0
		c-23.1,0-41.5-18.4-41.5-41.5l0,0C332.9,602.4,351.7,584,374.5,584z"/>
	<path class="st1" d="M625.5,332.9L625.5,332.9c23.1,0,41.5,18.4,41.5,41.5l0,0c0,23.1-18.4,41.5-41.5,41.5l0,0
		c-23.1,0-41.5-18.4-41.5-41.5l0,0C584,351.3,602.8,332.9,625.5,332.9z"/>
</g>
</svg>
