<svg xmlns="http://www.w3.org/2000/svg" viewBox="0 0 54.7 54.7"><defs><style>.cls-1{fill:#ee3543;}.cls-2{fill:#fff;}</style></defs><title>Asset 2</title><g id="Layer_2" data-name="Layer 2"><g id="Layer_1-2" data-name="Layer 1"><rect class="cls-1" width="54.7" height="54.7"/><path class="cls-2" d="M19.76,27.33a3.09,3.09,0,0,0-2.71-3.07,12.55,12.55,0,0,0,0,6.13A3.09,3.09,0,0,0,19.76,27.33Z"/><path class="cls-2" d="M21.56,26.36a1,1,0,1,0,1,1A1,1,0,0,0,21.56,26.36Z"/><path class="cls-2" d="M34.93,27.33a3.1,3.1,0,0,0,2.71,3.06,12.24,12.24,0,0,0,0-6.13A3.1,3.1,0,0,0,34.93,27.33Z"/><path class="cls-2" d="M33.14,26.36a1,1,0,1,0,1,1A1,1,0,0,0,33.14,26.36Z"/><path class="cls-2" d="M27.33,34.94a3.09,3.09,0,0,0-3.07,2.71,12.24,12.24,0,0,0,6.13,0A3.07,3.07,0,0,0,27.33,34.94Z"/><path class="cls-2" d="M27.33,32.17a1,1,0,1,0,1,1A1,1,0,0,0,27.33,32.17Z"/><path class="cls-2" d="M27.33,19.76a3.07,3.07,0,0,0,3.06-2.71,12.24,12.24,0,0,0-6.13,0A3.09,3.09,0,0,0,27.33,19.76Z"/><path class="cls-2" d="M27.33,20.59a1,1,0,0,0,0,1.94,1,1,0,1,0,0-1.94Z"/><path class="cls-2" d="M32.7,32.7a3.09,3.09,0,0,0-.25,4.08,12.33,12.33,0,0,0,4.33-4.34A3.09,3.09,0,0,0,32.7,32.7Z"/><path class="cls-2" d="M30.75,30.74a1,1,0,0,0,1.37,1.37,1,1,0,0,0,0-1.37A1,1,0,0,0,30.75,30.74Z"/><path class="cls-2" d="M22,22a3.09,3.09,0,0,0,.26-4.08,12.33,12.33,0,0,0-4.34,4.33A3.09,3.09,0,0,0,22,22Z"/><path class="cls-2" d="M22.56,22.56a1,1,0,0,0,0,1.37,1,1,0,0,0,1.37,0,1,1,0,0,0-1.37-1.37Z"/><path class="cls-2" d="M32.69,22a3.09,3.09,0,0,0,4.08.25,12.22,12.22,0,0,0-4.33-4.33A3.1,3.1,0,0,0,32.69,22Z"/><path class="cls-2" d="M32.11,23.92a1,1,0,1,0-1.37,0A1,1,0,0,0,32.11,23.92Z"/><path class="cls-2" d="M22,32.69a3.09,3.09,0,0,0-4.08-.26,12.33,12.33,0,0,0,4.33,4.34A3.09,3.09,0,0,0,22,32.69Z"/><path class="cls-2" d="M22.55,30.73a1,1,0,0,0,0,1.37,1,1,0,1,0,0-1.37Z"/></g></g></svg>