<svg xmlns="http://www.w3.org/2000/svg" viewBox="0 0 60 60.31"><defs><style>.cls-1{fill:#0097d3;}.cls-2{fill:#fff;}</style></defs><g id="Layer_2" data-name="Layer 2"><g id="Layer_1-2" data-name="Layer 1"><rect class="cls-1" width="60" height="60.31"/><path class="cls-2" d="M33.23,16.51h0A3.13,3.13,0,0,0,32.84,15a3.22,3.22,0,0,0-6.06,1.47h0V34.13h0a3.16,3.16,0,0,0,.38,1.54,3.22,3.22,0,0,0,6.06-1.54h0Z"/><path class="cls-2" d="M18.55,37.36a3.12,3.12,0,0,1-3.13-3.12l0-8,6.25-6.71,0,14.64a3.14,3.14,0,0,1-3.13,3.14"/><path class="cls-2" d="M41.45,37.36a3.12,3.12,0,0,0,3.13-3.12l0-8-6.25-6.71,0,14.64a3.14,3.14,0,0,0,3.13,3.14"/><path class="cls-2" d="M32.84,42.19a3.23,3.23,0,1,1-4.38-1.3,3.24,3.24,0,0,1,4.38,1.3"/></g></g></svg>