<?xml version="1.0" encoding="UTF-8"?>
<svg width="1278px" height="1238px" viewBox="0 0 1278 1238" version="1.1" xmlns="http://www.w3.org/2000/svg" xmlns:xlink="http://www.w3.org/1999/xlink">
    <title>header-blob</title>
    <g id="header-blob" stroke="none" stroke-width="1" fill="none" fill-rule="evenodd">
        <path d="M872.230269,63.1882781 C921.528338,127.898542 918.634777,233.168629 1001.76659,372.246081 C1083.93191,512.28926 1254.05565,685.174134 1257.93094,841.631067 C1261.80629,999.053782 1100.39975,1140.04861 923.52239,1178.66964 C745.678473,1217.29061 553.330402,1155.46939 364.847992,1083.99058 C176.365638,1013.47754 -7.28438863,935.238535 -55.6198227,802.923576 C-103.955313,669.642836 -16.0095996,483.251983 72.9058056,350.944987 C161.821211,218.63799 251.70642,142.346415 342.559304,85.370539 C432.445634,28.3946069 524.26625,-8.29978791 620.921322,-16.0204377 C718.543006,-22.7752493 821.965702,-0.556259887 872.230269,63.1882781 Z" id="Path-Copy-6" fill="#FEFEFE" transform="translate(594.322731, 586.686259) scale(-1, 1) rotate(13.000000) translate(-594.322731, -586.686259) "></path>
    </g>
</svg>