<?xml version="1.0" encoding="UTF-8"?>
<svg xmlns="http://www.w3.org/2000/svg" viewBox="0 0 352.86 103.89">
  <defs>
    <style>.cls-1{fill:#f76400;}.cls-2{fill:#143d50;}</style>
  </defs>
  <g id="Layer_2" data-name="Layer 2">
    <g id="Layer_1-2" data-name="Layer 1">
      <path class="cls-1" d="M54.38,53,65.87,41.48A8.37,8.37,0,0,0,54,29.64L30.69,53Z"></path>
      <path class="cls-1" d="M14.19,25.12,2.45,36.86A8.37,8.37,0,0,0,14.29,48.7L37.87,25.12Z"></path>
      <path class="cls-1" d="M32.42,8.23a8.23,8.23,0,1,1,8.23,8.23,8.22,8.22,0,0,1-8.23-8.23"></path>
      <path class="cls-1" d="M18,69.26a8.23,8.23,0,1,1,8.23,8.23A8.23,8.23,0,0,1,18,69.26"></path>
      <rect class="cls-1" x="95.43" y="7.87" width="10.33" height="62.35"></rect>
      <polygon class="cls-1" points="148.7 61.14 142.91 61.14 133.56 32.1 133.56 70.22 123.94 70.22 123.94 7.87 133.74 7.87 145.76 44.13 157.87 7.87 168.03 7.87 168.03 70.22 158.05 70.22 158.05 32.1 148.7 61.14"></polygon>
      <path class="cls-1" d="M217.64,21.06V32.9c0,9.44-6.23,13.18-15.67,13.18h-5.79V70.22H185.84V7.87H202c9.44,0,15.67,3.74,15.67,13.19m-10.33,1.6c0-4.46-2.31-5.7-5.7-5.7h-5.43V37h5.43c3.39,0,5.7-1.25,5.7-5.7Z"></path>
      <path class="cls-1" d="M250.78,56.33h-11.4l-2.23,13.89h-10L238.76,7.87h13l11.76,62.35H253Zm-1.34-8.55-4.36-27.7-4.36,27.7Z"></path>
      <path class="cls-1" d="M308.5,57.75c0,9.62-6.23,13.18-15.67,13.18h-.18c-9.44,0-15.68-3.47-15.68-13.18V20.34c0-9.26,6.24-13.18,15.68-13.18h.18c9.44,0,15.67,3.92,15.67,13.18v7.23H298.17V22c0-4.37-2.14-5.7-5.43-5.7s-5.44,1.33-5.44,5.7v34.2c0,4.36,2.14,5.7,5.44,5.7s5.43-1.34,5.43-5.7V49H308.5Z"></path>
      <polygon class="cls-1" points="352.86 16.96 342.44 16.96 342.44 70.22 332.11 70.22 332.11 16.96 321.69 16.96 321.69 7.87 352.86 7.87 352.86 16.96"></polygon>
      <path class="cls-2" d="M133,103.64V89.74h6.84c2.54,0,4,1.59,4,3.54a3.12,3.12,0,0,1-2.42,3.19,3.42,3.42,0,0,1,2.69,3.42c0,2.15-1.44,3.75-4,3.75Zm8.3-9.94a1.77,1.77,0,0,0-2-1.81h-3.9v3.6h3.9a1.76,1.76,0,0,0,2-1.79m.27,5.86a1.92,1.92,0,0,0-2.13-1.92h-4v3.86h4a1.88,1.88,0,0,0,2.13-1.94"></path>
      <polygon class="cls-2" points="152.76 103.64 152.76 97.87 147.37 89.74 150.16 89.74 153.99 95.7 157.79 89.74 160.58 89.74 155.2 97.87 155.2 103.64 152.76 103.64"></polygon>
      <rect class="cls-2" x="173.06" y="89.74" width="3.59" height="13.9"></rect>
      <polygon class="cls-2" points="191.52 103.64 185.64 95.6 185.64 103.64 182.06 103.64 182.06 89.74 185.75 89.74 191.38 97.39 191.38 89.74 194.98 89.74 194.98 103.64 191.52 103.64"></polygon>
      <path class="cls-2" d="M199.39,101.68l1.9-2.69a6.24,6.24,0,0,0,4.44,1.84c1.23,0,2-.48,2-1.15,0-1.89-7.88-.37-7.88-5.73,0-2.33,2-4.42,5.55-4.42A8.49,8.49,0,0,1,211,91.47l-2,2.56A6.6,6.6,0,0,0,205,92.6c-1,0-1.5.41-1.5,1,0,1.77,7.86.48,7.86,5.65,0,2.79-2.06,4.64-5.8,4.64a8.49,8.49,0,0,1-6.17-2.21"></path>
      <polygon class="cls-2" points="218.69 103.64 218.69 92.87 214.79 92.87 214.79 89.74 226.15 89.74 226.15 92.87 222.28 92.87 222.28 103.64 218.69 103.64"></polygon>
      <path class="cls-2" d="M238.53,103.64,236.2,99h-1.84v4.67h-3.58V89.74h7a4.47,4.47,0,0,1,4.83,4.63,4.21,4.21,0,0,1-2.77,4.17l2.84,5.1Zm.39-9.29a1.55,1.55,0,0,0-1.72-1.48h-2.84v3h2.84a1.54,1.54,0,0,0,1.72-1.5"></path>
      <path class="cls-2" d="M247.46,98V89.74h3.65v8.15a2.93,2.93,0,0,0,5.86,0V89.74h3.63V98c0,3.45-2.11,5.89-6.55,5.89s-6.59-2.46-6.59-5.87"></path>
      <path class="cls-2" d="M265.3,96.7c0-4.29,3.25-7.19,7.52-7.19a6.43,6.43,0,0,1,6.07,3.73l-3.08,1.46a3.35,3.35,0,0,0-3-2,4,4,0,0,0,0,8,3.34,3.34,0,0,0,3-2l3.08,1.46a6.46,6.46,0,0,1-6.07,3.73c-4.27,0-7.52-2.91-7.52-7.19"></path>
      <polygon class="cls-2" points="286.45 103.64 286.45 92.87 282.55 92.87 282.55 89.74 293.91 89.74 293.91 92.87 290.04 92.87 290.04 103.64 286.45 103.64"></polygon>
      <path class="cls-2" d="M298.54,98V89.74h3.64v8.15a2.93,2.93,0,0,0,5.86,0V89.74h3.63V98c0,3.45-2.11,5.89-6.55,5.89s-6.58-2.46-6.58-5.87"></path>
      <path class="cls-2" d="M324.83,103.64,322.5,99h-1.84v4.67h-3.58V89.74h7a4.48,4.48,0,0,1,4.84,4.63,4.21,4.21,0,0,1-2.78,4.17l2.84,5.1Zm.4-9.29a1.55,1.55,0,0,0-1.73-1.48h-2.84v3h2.84a1.54,1.54,0,0,0,1.73-1.5"></path>
      <polygon class="cls-2" points="333.77 103.64 333.77 89.74 343.96 89.74 343.96 92.87 337.36 92.87 337.36 95.04 343.82 95.04 343.82 98.16 337.36 98.16 337.36 100.52 343.96 100.52 343.96 103.64 333.77 103.64"></polygon>
    </g>
  </g>
</svg>
