<?xml version="1.0" encoding="UTF-8"?>
<svg xmlns="http://www.w3.org/2000/svg" id="Layer_1" viewBox="0 0 2718.31 500">
  <defs>
    <style>.cls-1{fill:#fff;}.cls-2{fill:#444;}.cls-3{fill:#4560ac;}</style>
  </defs>
  <g>
    <g>
      <circle class="cls-1" cx="250" cy="250" r="246.17"></circle>
      <path class="cls-3" d="M250,500C112.15,500,0,387.85,0,250S112.15,0,250,0s250,112.15,250,250-112.15,250-250,250Zm0-492.35C116.37,7.65,7.65,116.37,7.65,250s108.72,242.35,242.35,242.35,242.35-108.72,242.35-242.35S383.63,7.65,250,7.65Z"></path>
    </g>
    <path class="cls-3" d="M250,447.36c-108.82,0-197.35-88.54-197.35-197.36S141.18,52.64,250,52.64s197.36,88.53,197.36,197.35-88.53,197.36-197.36,197.36Zm0-392.16c-107.41,0-194.8,87.39-194.8,194.8s87.39,194.81,194.8,194.81,194.81-87.39,194.81-194.81S357.42,55.19,250,55.19Z"></path>
    <circle class="cls-3" cx="250" cy="250" r="188.3"></circle>
    <g>
      <path class="cls-1" d="M353.33,238.06c-.24-1.64-60.76-56.55-66.11-61.35v-45.42h21.99c-19.23-18.11-55.15-52.03-55.48-52.28-2.68-2.01-5.32-2.08-7.79,.34-2.43,2.38-43.75,42.46-55.29,52.28h21.99v47.61c-1.53,.4-66.2,59.44-66.2,59.44h22.89v130.21h-12.78v12.14c-4.45,.29-8.47,.55-11.94,.77v22.27h208.18v-22.46c-3.38-.19-6.24-.35-9.97-.57v-12.79h-14.53c-1.58-33.31-1.01-119.32,.92-130.2h24.13Z"></path>
      <path class="cls-1" d="M229.59,279.34c-1.81,10.72-1.75,58.96,0,68.42h39.54c0-22.46,0-44.47-.02-66.48,0-.37-.21-.77-.43-1.08-.24-.33-.6-.58-.91-.86h-38.19Zm-72.47,116.92h185.76v-6.82H157.12v6.82Zm12.75-12.75h160.25v-6.82H169.87v6.82ZM250,108.43c-7.21,7.21-14.42,14.42-21.27,21.27v42.53c14.61-.09,28.8,.12,42.92-.14v-41.99c-7.24-7.24-14.45-14.45-21.66-21.66Zm64.82,252.95H184.82c.25,2.75,.46,5.03,.62,6.82h129.39v-6.82Zm-124.36-81.81v37.39h24.7v-37.39h-24.7Zm94.4-.02v38.05c4.59,0,8.77,.06,12.95-.02,4.07-.07,8.14-.27,11.72-.4v-37.63h-24.67Zm-15.37-8.28c-3.18-11.38-9.19-18.67-19.95-19.69-3.8-.36-8.49,2.08-11.77,4.58-4.67,3.56-9.22,7.85-9.56,15.11h41.27Z"></path>
      <path class="cls-3" d="M229.59,279.34h39.54v68.42h-39.54v-68.42Z"></path>
      <path class="cls-3" d="M157.12,396.26v-6.82h185.76v6.82H157.12Z"></path>
      <path class="cls-3" d="M169.87,383.51v-6.82h160.25v6.82H169.87Z"></path>
      <path class="cls-3" d="M250,108.43c7.21,7.21,14.42,14.42,21.66,21.66v41.99c-14.13,.26-28.31,.05-42.92,.14v-42.53c6.84-6.84,14.06-14.06,21.27-21.27Z"></path>
      <path class="cls-3" d="M314.82,361.38v6.82H185.44c-.16-1.79-.37-4.07-.62-6.82h130.01Z"></path>
      <path class="cls-3" d="M190.46,279.57h24.7v37.39h-24.7v-37.39Z"></path>
      <path class="cls-3" d="M284.86,279.55h24.67v37.63c-3.58,.13-7.64,.33-11.72,.4-4.18,.07-8.36,.02-12.95,.02v-38.05Z"></path>
      <path class="cls-3" d="M269.49,271.27h-41.27c3.44-9.15,8.45-19.72,21.32-19.69,10.81,.03,16.76,8.31,19.95,19.69Z"></path>
    </g>
    <rect class="cls-3" x="183.01" y="239.52" width="133.98" height="2.55"></rect>
    <path class="cls-1" d="M266.41,158.22l-4.93-4.83v-19.37c0-1.25-.52-2.43-1.43-3.28l-8.58-7.93c-.67-.62-1.71-.62-2.38,0l-8.58,7.93c-.91,.85-1.43,2.03-1.43,3.28v19.34l-5.06,4.85c-1.31,1.25-.42,3.46,1.39,3.46h2.78c-.1,.41-.17,.83-.17,1.27,0,2.98,2.41,5.39,5.39,5.39s5.39-2.41,5.39-5.39c0-.44-.07-.86-.17-1.27h16.38c1.8,0,2.69-2.19,1.41-3.45Z"></path>
    <g>
      <path class="cls-3" d="M99.05,399.35c.86,.26,2.33,1.1,3.85,2.55,3.49,3.35,4,8.07,.1,12.14-3.73,3.89-8.86,3.99-12.71,.31-1.53-1.47-2.21-2.74-2.42-3.37l1.64-.92c.33,.86,.98,1.91,2.01,2.9,2.91,2.79,6.62,2.78,9.74-.48,2.91-3.04,3.02-6.65,.01-9.53-.99-.94-2.17-1.69-3.12-2.01l.9-1.59Z"></path>
      <path class="cls-3" d="M85.21,408.55c-.93-.68-2.12-1.77-3.15-2.9-1.59-1.74-2.31-3.18-2.32-4.63-.02-1.13,.51-2.29,1.5-3.2,1.66-1.52,3.74-1.47,5.41-.57l.05-.04c-.55-1.28-.17-2.7,.86-4.2,1.39-2.04,2.33-3.45,2.59-4.16l1.55,1.7c-.18,.54-1,1.81-2.27,3.61-1.39,1.96-1.44,3.27-.13,4.79l1.42,1.55,5.49-5.02,1.5,1.64-12.5,11.44Zm4.27-6.92l-1.53-1.67c-1.6-1.75-3.57-1.99-5.02-.66-1.65,1.51-1.27,3.35,.3,5.08,.73,.79,1.3,1.28,1.63,1.49l4.62-4.23Z"></path>
      <path class="cls-3" d="M76.84,385.23l4.19,5.18,4.82-3.9-4.69-5.79,1.44-1.16,6.09,7.52-13.35,10.81-5.84-7.22,1.44-1.16,4.44,5.49,4.23-3.42-4.19-5.18,1.43-1.16Z"></path>
      <path class="cls-3" d="M75.02,378.35l5.44-1.67,1.33,1.88-17.41,5.14-1.54-2.18,10.65-14.71,1.37,1.94-3.35,4.62,3.51,4.97Zm-4.67-3.61l-3.06,4.24c-.7,.95-1.39,1.76-2.05,2.53l.03,.05c.96-.38,1.98-.76,3.03-1.1l5.04-1.49-3-4.24Z"></path>
      <path class="cls-3" d="M58.62,371.8l2.77,4.44-1.59,.99-6.74-10.8,1.59-.99,2.79,4.46,12.99-8.11,1.18,1.9-12.99,8.11Z"></path>
      <path class="cls-3" d="M50.84,362.38l14.95-8.47,1.1,1.94-14.95,8.47-1.1-1.94Z"></path>
      <path class="cls-3" d="M63.94,350.73l-15.4,7.66-1.09-2.19,5.33-8.81c1.25-2.02,2.42-3.72,3.65-5.24l-.05-.04c-1.97,1.2-3.83,2.17-6.21,3.36l-6.45,3.21-.93-1.87,15.4-7.66,1,2.02-5.37,8.78c-1.2,1.92-2.44,3.83-3.73,5.43l.06,.05c1.89-1.09,3.73-2.04,6.28-3.31l6.59-3.28,.93,1.87Z"></path>
      <path class="cls-3" d="M51.11,324.02c.72,.78,1.99,2.4,2.85,4.55,.97,2.42,1.17,4.66,.3,6.82-.77,1.91-2.54,3.61-5.03,4.6-4.76,1.91-9.56,.04-11.71-5.3-.74-1.84-.93-3.47-.88-4.28l1.89-.16c-.04,1.01,.09,2.19,.74,3.8,1.56,3.87,4.99,5.44,8.99,3.83,4.04-1.63,5.46-5.02,3.95-8.75-.54-1.35-1.1-2.18-1.53-2.56l-4.75,1.92,1.3,3.23-1.65,.67-2.12-5.25,7.66-3.09Z"></path>
      <path class="cls-3" d="M40.93,283.6c.54,.71,1.25,2.26,1.64,4.31,.89,4.76-1.46,8.89-7.01,9.92-5.3,.99-9.53-1.92-10.51-7.17-.39-2.09-.2-3.51,0-4.15l1.88,.21c-.24,.89-.32,2.12-.06,3.53,.74,3.97,3.76,6.12,8.2,5.29,4.13-.77,6.33-3.64,5.57-7.74-.25-1.34-.77-2.64-1.36-3.45l1.66-.76Z"></path>
      <path class="cls-3" d="M23.79,280.77l10.12-1.13c3.81-.43,5.24-2.3,4.98-4.6-.28-2.51-2.14-3.97-5.89-3.54l-10.12,1.14-.25-2.22,9.96-1.12c5.25-.59,7.7,1.93,8.12,5.63,.39,3.49-1.3,6.34-6.61,6.94l-10.06,1.13-.25-2.22Z"></path>
      <path class="cls-3" d="M22.33,265.69l-.1-2.23,15.31-.7-.34-7.35,1.87-.09,.44,9.58-17.18,.79Z"></path>
      <path class="cls-3" d="M23.79,251.85l-.09,5.23-1.87-.03,.21-12.72,1.88,.03-.09,5.26,15.31,.26-.04,2.23-15.31-.26Z"></path>
      <path class="cls-3" d="M22.17,239.5l10.17,.7c3.83,.26,5.57-1.32,5.73-3.64,.17-2.53-1.39-4.29-5.16-4.55l-10.17-.7,.15-2.23,10.01,.69c5.27,.36,7.24,3.28,6.98,7-.24,3.5-2.42,6.01-7.75,5.64l-10.11-.7,.15-2.23Z"></path>
      <path class="cls-3" d="M23.66,224.37c-.07-1.15,0-2.77,.22-4.28,.32-2.33,.98-3.81,2.09-4.74,.86-.74,2.09-1.07,3.42-.89,2.24,.31,3.53,1.95,3.89,3.81h.06c.64-1.23,1.97-1.84,3.79-2.01,2.46-.23,4.14-.41,4.85-.66l-.32,2.28c-.53,.2-2.03,.38-4.23,.55-2.4,.18-3.43,.98-3.78,2.96l-.29,2.08,7.38,1.02-.31,2.2-16.79-2.33Zm8.05-1.12l.31-2.25c.33-2.35-.75-4.02-2.7-4.29-2.21-.31-3.39,1.15-3.72,3.47-.15,1.07-.15,1.82-.11,2.2l6.22,.86Z"></path>
      <path class="cls-3" d="M36.3,203.07l-1.32,6.53,6.08,1.23,1.48-7.3,1.81,.37-1.92,9.49-16.84-3.41,1.84-9.1,1.81,.37-1.4,6.92,5.33,1.08,1.32-6.53,1.8,.37Z"></path>
      <path class="cls-3" d="M48.85,171.4l4.32,3.7-.88,2.13-13.67-11.97,1.02-2.47,18.14,1.13-.91,2.2-5.7-.36-2.33,5.63Zm.55-5.88l-5.23-.31c-1.18-.08-2.23-.24-3.24-.38l-.02,.05c.84,.61,1.7,1.26,2.55,1.97l3.96,3.47,1.98-4.8Z"></path>
      <path class="cls-3" d="M58.72,161.97l-15.35-7.74,1.1-2.18,10.23-1c2.37-.21,4.43-.29,6.38-.22v-.06c-2.14-.85-4.03-1.76-6.4-2.96l-6.43-3.24,.94-1.87,15.35,7.74-1.02,2.02-10.24,.95c-2.25,.19-4.52,.34-6.58,.26v.08c1.99,.86,3.86,1.77,6.39,3.05l6.56,3.31-.94,1.87Z"></path>
      <path class="cls-3" d="M51.78,138.51c.52-1.28,1.23-2.74,2.14-4.23,1.66-2.72,3.49-4.27,5.47-4.83,1.99-.59,4.16-.32,6.52,1.12,2.41,1.47,3.9,3.41,4.43,5.59,.52,2.22-.11,4.95-1.84,7.79-.83,1.36-1.57,2.45-2.27,3.35l-14.45-8.8Zm14.16,6.01c.37-.44,.81-1.13,1.25-1.86,2.49-4.06,1.55-7.63-2.42-10.05-3.46-2.13-6.84-1.5-9.28,2.5-.6,.98-.96,1.77-1.16,2.34l11.6,7.07Z"></path>
      <path class="cls-3" d="M99.06,102.93c-.25,.86-1.06,2.36-2.48,3.9-3.29,3.56-8.01,4.15-12.16,.32-3.97-3.66-4.16-8.8-.54-12.73,1.44-1.56,2.7-2.26,3.33-2.49l.96,1.63c-.86,.35-1.9,1.01-2.87,2.06-2.74,2.97-2.66,6.68,.66,9.75,3.09,2.85,6.72,2.9,9.54-.16,.93-1,1.66-2.2,1.95-3.16l1.61,.87Z"></path>
      <path class="cls-3" d="M105.55,85.48c4.03,4.3,3.56,9.06,.37,12.05-3.33,3.12-8.05,2.71-11.6-1.08-3.72-3.97-3.71-8.89-.36-12.03,3.43-3.21,8.11-2.67,11.6,1.06Zm-9.56,9.33c2.51,2.68,6.22,3.72,8.78,1.32,2.57-2.41,1.8-6.13-.87-8.98-2.34-2.5-6.08-3.88-8.78-1.36-2.69,2.52-1.7,6.27,.87,9.01Z"></path>
      <path class="cls-3" d="M113.51,90.25l-10.73-13.43,1.91-1.52,9.73,3.35c2.24,.79,4.15,1.58,5.89,2.46l.03-.05c-1.59-1.67-2.93-3.28-4.59-5.36l-4.5-5.63,1.63-1.31,10.73,13.43-1.76,1.41-9.71-3.4c-2.13-.77-4.25-1.58-6.09-2.5l-.04,.07c1.46,1.62,2.78,3.22,4.55,5.44l4.59,5.74-1.63,1.31Z"></path>
      <path class="cls-3" d="M116.96,66.04c1-.95,2.26-1.97,3.71-2.95,2.64-1.78,4.95-2.43,6.98-2.11,2.05,.29,3.91,1.44,5.46,3.73,1.58,2.34,2.13,4.72,1.7,6.93-.45,2.23-2.16,4.45-4.92,6.31-1.32,.89-2.45,1.58-3.45,2.1l-9.47-14.01Zm10.37,11.35c.52-.24,1.21-.69,1.91-1.16,3.95-2.66,4.59-6.29,1.99-10.14-2.25-3.38-5.59-4.22-9.47-1.59-.95,.64-1.61,1.21-2.03,1.64l7.61,11.25Z"></path>
      <path class="cls-3" d="M133.55,54.97l8.87,14.74-1.91,1.15-8.87-14.74,1.91-1.15Z"></path>
      <path class="cls-3" d="M141.17,52.79l-4.6,2.5-.9-1.65,11.19-6.08,.9,1.65-4.63,2.51,7.32,13.46-1.96,1.07-7.32-13.46Z"></path>
      <path class="cls-3" d="M151.11,45.57l7.53,15.45-2.01,.98-7.53-15.45,2.01-.98Z"></path>
      <path class="cls-3" d="M172.04,45.59c2.29,5.44,.19,9.73-3.84,11.43-4.2,1.77-8.49-.26-10.5-5.05-2.11-5.02-.39-9.63,3.84-11.41,4.33-1.82,8.53,.31,10.51,5.02Zm-12.2,5.43c1.42,3.39,4.54,5.65,7.77,4.29,3.25-1.37,3.82-5.12,2.31-8.72-1.33-3.15-4.36-5.75-7.76-4.32-3.4,1.43-3.77,5.29-2.32,8.75Z"></path>
      <path class="cls-3" d="M177.83,52.82l-5.38-16.32,2.32-.76,7.95,6.53c1.82,1.52,3.34,2.92,4.66,4.35l.05-.04c-.91-2.11-1.6-4.09-2.44-6.62l-2.25-6.84,1.99-.66,5.38,16.32-2.14,.7-7.91-6.56c-1.73-1.46-3.44-2.96-4.84-4.46l-.06,.05c.81,2.03,1.48,3.98,2.37,6.68l2.3,6.98-1.98,.66Z"></path>
      <path class="cls-3" d="M192.6,45.3c1.11,.36,2.64,.48,4.12,.1,2.2-.56,3.2-2.04,2.77-3.73-.39-1.54-1.53-2.22-3.99-2.49-2.97-.27-5.02-1.27-5.61-3.6-.66-2.59,1-5.07,4.25-5.89,1.69-.43,3.05-.36,3.88-.13l-.15,1.92c-.61-.18-1.85-.37-3.35,.01-2.29,.58-2.81,2.16-2.52,3.3,.39,1.54,1.6,2.05,4.13,2.35,3.11,.39,4.88,1.38,5.5,3.82,.65,2.56-.66,5.28-4.6,6.29-1.61,.41-3.49,.37-4.53,0l.11-1.94Z"></path>
      <path class="cls-3" d="M232.92,25.57l-5.23,.37-.13-1.87,12.7-.89,.13,1.87-5.25,.37,1.07,15.29-2.23,.16-1.08-15.29Z"></path>
      <path class="cls-3" d="M257.05,31.36c.1,5.9-3.44,9.1-7.82,9.18-4.56,.08-7.78-3.4-7.87-8.59-.09-5.44,3.22-9.08,7.81-9.15,4.69-.08,7.8,3.46,7.89,8.57Zm-13.34,.5c.06,3.68,2.11,6.93,5.61,6.88,3.52-.06,5.45-3.33,5.39-7.23-.06-3.42-1.9-6.96-5.59-6.9-3.69,.06-5.47,3.5-5.4,7.26Z"></path>
      <path class="cls-3" d="M296.41,37.09l-6.54-1.27-1.18,6.09,7.31,1.42-.35,1.82-9.5-1.85,3.28-16.87,9.12,1.77-.35,1.81-6.93-1.35-1.04,5.34,6.54,1.27-.35,1.8Z"></path>
      <path class="cls-3" d="M314.14,42.18c.51-2.34,1.13-5.18,1.7-7.22l-.07-.02c-1.1,1.77-2.36,3.67-3.82,5.71l-5.14,7.24-1.62-.45-.53-8.64c-.15-2.56-.2-4.86-.13-6.96h-.06c-.63,2.04-1.49,4.77-2.34,7.21l-2.4,6.99-2.03-.56,5.72-16.26,2.74,.75,.61,8.8c.12,2.22,.18,4.2,.13,6.05l.06,.02c.9-1.56,1.98-3.23,3.29-5.1l5.17-7.21,2.74,.75-3.54,16.86-2.1-.58,1.61-7.39Z"></path>
      <path class="cls-3" d="M323.3,35.27c1.07,.19,2.44,.52,4.13,1.14,2.05,.74,3.39,1.77,4.04,2.99,.6,1.09,.71,2.46,.19,3.9-.53,1.46-1.39,2.46-2.51,3-1.54,.78-3.54,.72-5.58-.02-.63-.23-1.2-.46-1.63-.76l-2.36,6.48-2.09-.76,5.81-15.96Zm-.74,8.54c.42,.3,.98,.56,1.67,.81,2.53,.92,4.51,.23,5.31-1.98,.78-2.14-.37-3.74-2.66-4.57-.92-.34-1.64-.5-2.03-.55l-2.29,6.29Z"></path>
      <path class="cls-3" d="M346.95,53.83c-2.41,5.38-6.98,6.79-10.98,4.99-4.16-1.87-5.61-6.38-3.48-11.12,2.23-4.97,6.77-6.86,10.96-4.98,4.28,1.92,5.6,6.45,3.51,11.11Zm-12.3-5.21c-1.5,3.36-1.03,7.18,2.17,8.61,3.22,1.44,6.35-.7,7.95-4.27,1.4-3.12,1.23-7.11-2.14-8.62-3.37-1.51-6.44,.85-7.98,4.28Z"></path>
      <path class="cls-3" d="M348.11,64.32l4.65-17.12,2.05,1.16-2.49,8.59c-.63,2.11-1.27,4.2-1.82,5.8l.05,.03c1.08-1.35,2.56-2.87,4.15-4.51l6.27-6.42,2.01,1.13-2.45,8.62c-.59,2.03-1.19,4.02-1.85,5.73l.05,.03c1.22-1.47,2.58-2.91,4.1-4.51l6.24-6.44,1.99,1.12-12.7,12.58-2.02-1.14,2.51-8.86c.61-2.2,1.12-3.83,1.77-5.46l-.04-.02c-1.09,1.37-2.27,2.62-3.91,4.25l-6.52,6.6-2.04-1.15Z"></path>
      <path class="cls-3" d="M375.94,71.95l-5.53-3.72-3.47,5.15,6.19,4.16-1.03,1.54-8.04-5.41,9.6-14.27,7.71,5.19-1.03,1.53-5.86-3.94-3.04,4.52,5.53,3.72-1.03,1.53Z"></path>
      <path class="cls-3" d="M384.55,67.18c1.03,.51,2.4,1.38,3.61,2.31,1.87,1.43,2.83,2.74,3.09,4.16,.22,1.11-.1,2.35-.92,3.42-1.38,1.79-3.43,2.1-5.24,1.5l-.04,.05c.76,1.16,.64,2.63-.12,4.3-1.01,2.25-1.69,3.8-1.82,4.55l-1.83-1.4c.09-.56,.67-1.96,1.61-3.95,1.03-2.18,.85-3.47-.71-4.75l-1.67-1.28-4.54,5.91-1.76-1.35,10.32-13.45Zm-3,7.56l1.8,1.38c1.89,1.45,3.87,1.34,5.07-.23,1.36-1.77,.67-3.52-1.18-4.95-.85-.66-1.51-1.03-1.86-1.18l-3.82,4.98Z"></path>
      <path class="cls-3" d="M405.39,108.44l10.13-14.55,1.54,1.78-5.23,7.24c-1.3,1.78-2.61,3.52-3.66,4.84l.04,.04c1.47-.91,3.37-1.84,5.42-2.85l8.06-3.93,1.51,1.74-5.21,7.29c-1.24,1.71-2.47,3.38-3.66,4.77l.04,.04c1.65-.97,3.41-1.87,5.37-2.86l8.04-3.96,1.49,1.72-16.18,7.57-1.52-1.75,5.34-7.49c1.32-1.86,2.34-3.23,3.5-4.54l-.03-.04c-1.49,.91-3.01,1.71-5.11,2.68l-8.35,4.02-1.53-1.77Z"></path>
      <path class="cls-3" d="M432.95,129.28c-4.79,3.45-9.45,2.37-12.01-1.19-2.66-3.7-1.65-8.34,2.57-11.37,4.42-3.18,9.3-2.54,11.98,1.19,2.74,3.81,1.61,8.39-2.54,11.37Zm-8.03-10.68c-2.99,2.15-4.49,5.69-2.44,8.54,2.06,2.86,5.85,2.58,9.02,.29,2.78-2,4.64-5.54,2.48-8.54-2.16-3-6-2.49-9.05-.3Z"></path>
      <path class="cls-3" d="M441.63,127.77c.78,.84,1.75,2.14,2.55,3.44,1.23,2.01,1.67,3.56,1.4,4.98-.2,1.12-.93,2.15-2.08,2.86-1.92,1.18-3.96,.74-5.43-.47l-.05,.03c.3,1.36-.35,2.68-1.65,3.97-1.75,1.74-2.94,2.95-3.33,3.6l-1.2-1.96c.28-.49,1.33-1.59,2.91-3.12,1.74-1.67,2.03-2.93,1.03-4.68l-1.1-1.79-6.34,3.9-1.16-1.89,14.44-8.88Zm-5.5,5.99l1.19,1.93c1.24,2.02,3.13,2.63,4.81,1.59,1.9-1.17,1.88-3.05,.66-5.04-.56-.92-1.04-1.5-1.32-1.77l-5.34,3.28Z"></path>
      <path class="cls-3" d="M449.28,140.04l1.05,1.97-13.51,7.22,3.47,6.48-1.65,.88-4.52-8.45,15.16-8.11Z"></path>
      <path class="cls-3" d="M455.11,151.63c.76,1.15,1.56,2.56,2.28,4.15,1.31,2.9,1.55,5.29,.89,7.23-.64,1.97-2.08,3.61-4.6,4.74-2.57,1.16-5.01,1.29-7.11,.49-2.12-.82-4.02-2.88-5.38-5.92-.65-1.45-1.14-2.68-1.48-3.76l15.41-6.95Zm-12.94,8.28c.15,.55,.47,1.31,.82,2.08,1.94,4.34,5.41,5.58,9.64,3.68,3.71-1.64,5.1-4.79,3.18-9.05-.47-1.05-.92-1.79-1.27-2.28l-12.37,5.58Z"></path>
      <path class="cls-3" d="M463.15,202.29l-1.6,.39-1.49-6.12,1.6-.39,1.49,6.12Z"></path>
      <path class="cls-3" d="M461.44,244.78c-.45-.78-.96-2.4-1.09-4.49-.29-4.83,2.55-8.64,8.19-8.98,5.38-.32,9.22,3.09,9.54,8.42,.13,2.12-.24,3.51-.51,4.12l-1.84-.44c.35-.86,.59-2.07,.5-3.49-.24-4.03-2.97-6.54-7.48-6.27-4.2,.25-6.73,2.83-6.49,6.98,.08,1.36,.44,2.72,.92,3.59l-1.74,.55Z"></path>
      <path class="cls-3" d="M478.14,247.6l-.04,2.23-15.31-.26-.12,7.35-1.87-.03,.16-9.58,17.18,.29Z"></path>
      <path class="cls-3" d="M466.04,262.29l-5.28-2.12,.15-2.3,16.78,6.94-.17,2.67-17.53,4.76,.15-2.37,5.51-1.49,.39-6.08Zm1.37,5.75l5.05-1.38c1.15-.3,2.18-.49,3.19-.68v-.06c-.98-.31-2.01-.65-3.04-1.05l-4.86-2.01-.33,5.18Z"></path>
      <path class="cls-3" d="M462.39,274.5c-.74,.9-1.42,2.28-1.62,3.79-.29,2.25,.71,3.73,2.44,3.96,1.58,.21,2.63-.6,3.8-2.78,1.35-2.66,3.04-4.19,5.43-3.88,2.65,.35,4.34,2.81,3.9,6.13-.23,1.73-.8,2.97-1.32,3.65l-1.73-.85c.39-.5,1.03-1.58,1.23-3.12,.31-2.34-.97-3.41-2.13-3.56-1.58-.21-2.5,.73-3.72,2.96-1.51,2.74-3.09,4.02-5.59,3.69-2.62-.34-4.66-2.57-4.14-6.61,.22-1.65,.95-3.38,1.68-4.21l1.76,.82Z"></path>
      <path class="cls-3" d="M460.68,286.86c-.8,.86-1.55,2.19-1.84,3.69-.43,2.23,.49,3.76,2.2,4.09,1.57,.3,2.66-.44,3.95-2.56,1.51-2.57,3.28-4,5.65-3.55,2.63,.5,4.16,3.06,3.54,6.35-.33,1.72-.97,2.91-1.53,3.57l-1.67-.95c.42-.48,1.12-1.52,1.41-3.04,.44-2.32-.76-3.46-1.92-3.68-1.57-.3-2.54,.58-3.88,2.74-1.67,2.65-3.32,3.83-5.8,3.36-2.59-.5-4.51-2.84-3.74-6.84,.31-1.63,1.15-3.32,1.93-4.11l1.71,.92Z"></path>
      <path class="cls-3" d="M463.96,330.41l-.81,2.08-14.26-5.59-2.68,6.84-1.74-.69,3.49-8.92,16,6.27Z"></path>
      <path class="cls-3" d="M447.17,346.58l2.79-6.06-5.65-2.6-3.12,6.78-1.68-.77,4.05-8.81,15.64,7.19-3.89,8.45-1.68-.77,2.95-6.42-4.95-2.28-2.79,6.06-1.67-.77Z"></path>
      <path class="cls-3" d="M441.81,351.25l-3.9-4.13,1.1-2.02,12.33,13.32-1.27,2.35-17.91-3.02,1.13-2.09,5.63,.95,2.9-5.36Zm-1.16,5.79l5.16,.86c1.17,.21,2.19,.47,3.18,.71l.03-.05c-.77-.7-1.56-1.43-2.32-2.23l-3.57-3.86-2.47,4.56Z"></path>
      <path class="cls-3" d="M445.28,368.73c-.41,1.07-1.16,2.52-1.97,3.81-1.26,1.99-2.47,3.06-3.86,3.45-1.09,.32-2.35,.11-3.49-.61-1.91-1.21-2.41-3.23-1.97-5.08l-.05-.03c-1.09,.86-2.56,.87-4.29,.27-2.33-.81-3.94-1.35-4.7-1.41l1.23-1.95c.57,.04,2.01,.49,4.09,1.25,2.26,.83,3.53,.53,4.67-1.13l1.13-1.78-6.3-3.99,1.19-1.88,14.33,9.08Zm-7.8-2.32l-1.22,1.92c-1.27,2.01-.99,3.98,.68,5.03,1.89,1.2,3.57,.35,4.83-1.62,.58-.91,.89-1.59,1.01-1.96l-5.3-3.36Z"></path>
      <path class="cls-3" d="M423.68,370.98l13.83,10.21-1.45,1.96-10.26-.73c-2.37-.19-4.41-.46-6.32-.86v.06c1.95,1.2,3.66,2.41,5.81,3.99l5.79,4.28-1.24,1.68-13.83-10.2,1.34-1.81,10.25,.78c2.25,.19,4.52,.43,6.53,.84l.02-.08c-1.83-1.19-3.51-2.39-5.8-4.08l-5.91-4.36,1.24-1.68Z"></path>
      <path class="cls-3" d="M414.11,396.17l4.31-5.09-4.74-4.02-4.82,5.69-1.41-1.2,6.27-7.39,13.12,11.13-6.01,7.09-1.41-1.2,4.57-5.39-4.16-3.52-4.31,5.08-1.4-1.19Z"></path>
      <path class="cls-3" d="M417.93,405.21c-.62,.97-1.63,2.23-2.68,3.34-1.63,1.7-3.03,2.51-4.47,2.62-1.13,.09-2.32-.36-3.29-1.29-1.63-1.56-1.72-3.64-.92-5.37l-.04-.04c-1.24,.63-2.68,.34-4.25-.59-2.13-1.25-3.59-2.09-4.32-2.31l1.59-1.66c.55,.15,1.87,.88,3.75,2.03,2.05,1.26,3.35,1.22,4.79-.18l1.45-1.52-5.38-5.15,1.53-1.6,12.24,11.72Zm-7.18-3.81l-1.57,1.64c-1.64,1.72-1.75,3.7-.33,5.06,1.61,1.54,3.43,1.05,5.05-.64,.74-.78,1.19-1.38,1.38-1.72l-4.53-4.34Z"></path>
      <path class="cls-3" d="M398.33,404.91c-1.15,.22-2.55,.84-3.67,1.88-1.67,1.54-1.84,3.32-.66,4.6,1.08,1.17,2.41,1.23,4.7,.29,2.74-1.18,5.01-1.27,6.65,.49,1.82,1.96,1.53,4.93-.93,7.2-1.28,1.19-2.51,1.77-3.35,1.97l-.78-1.76c.62-.13,1.8-.55,2.94-1.6,1.73-1.6,1.44-3.24,.64-4.1-1.08-1.17-2.39-1.04-4.75-.1-2.92,1.14-4.95,1.11-6.66-.74-1.79-1.94-1.94-4.96,1.05-7.72,1.22-1.13,2.89-1.99,3.99-2.16l.83,1.75Z"></path>
    </g>
    <g>
      <path class="cls-3" d="M212.12,478.47v-20.09h7.58c1.33,0,2.35,.06,3.06,.19,.99,.16,1.81,.48,2.48,.94s1.2,1.11,1.61,1.94c.41,.83,.61,1.74,.61,2.74,0,1.71-.54,3.15-1.63,4.34s-3.05,1.77-5.89,1.77h-5.15v8.17h-2.66Zm2.66-10.54h5.19c1.72,0,2.94-.32,3.66-.96,.72-.64,1.08-1.54,1.08-2.7,0-.84-.21-1.56-.64-2.16-.43-.6-.99-.99-1.68-1.19-.45-.12-1.27-.18-2.48-.18h-5.14v7.18Z"></path>
      <path class="cls-3" d="M244.86,458.38h2.66v11.61c0,2.02-.23,3.62-.69,4.81s-1.28,2.15-2.47,2.9c-1.19,.74-2.76,1.12-4.69,1.12s-3.42-.33-4.62-.97-2.05-1.59-2.56-2.81-.77-2.91-.77-5.03v-11.61h2.66v11.59c0,1.74,.16,3.03,.49,3.86,.32,.83,.88,1.46,1.67,1.91,.79,.45,1.75,.67,2.9,.67,1.95,0,3.35-.44,4.18-1.33,.83-.89,1.25-2.59,1.25-5.11v-11.59Z"></path>
      <path class="cls-3" d="M251.88,472.02l2.51-.22c.12,1,.39,1.83,.83,2.47,.43,.65,1.11,1.17,2.02,1.56,.91,.4,1.94,.6,3.08,.6,1.01,0,1.91-.15,2.69-.45s1.35-.71,1.73-1.24c.38-.53,.57-1.1,.57-1.72s-.18-1.18-.55-1.65-.97-.86-1.81-1.19c-.54-.21-1.73-.54-3.58-.98s-3.14-.86-3.88-1.25c-.96-.5-1.67-1.13-2.14-1.87-.47-.74-.7-1.58-.7-2.5,0-1.02,.29-1.96,.86-2.84s1.42-1.55,2.52-2.01c1.1-.46,2.33-.68,3.69-.68,1.49,0,2.8,.24,3.94,.72,1.14,.48,2.01,1.19,2.62,2.12s.94,1.99,.99,3.16l-2.55,.19c-.14-1.27-.6-2.23-1.39-2.88-.79-.65-1.96-.97-3.5-.97s-2.78,.29-3.51,.88c-.73,.59-1.1,1.3-1.1,2.13,0,.72,.26,1.32,.78,1.78,.51,.47,1.85,.94,4.01,1.43,2.16,.49,3.64,.91,4.45,1.28,1.17,.54,2.03,1.22,2.59,2.05s.84,1.78,.84,2.86-.31,2.08-.92,3.02c-.61,.94-1.49,1.68-2.64,2.2-1.15,.53-2.44,.79-3.87,.79-1.82,0-3.34-.27-4.57-.8-1.23-.53-2.19-1.33-2.89-2.39-.7-1.06-1.07-2.27-1.1-3.61Z"></path>
      <path class="cls-3" d="M272.34,478.47v-20.09h6.92c1.56,0,2.75,.1,3.58,.29,1.15,.27,2.13,.74,2.95,1.44,1.06,.89,1.85,2.04,2.38,3.43,.52,1.39,.79,2.98,.79,4.77,0,1.53-.18,2.88-.53,4.06-.36,1.18-.81,2.15-1.37,2.93s-1.17,1.38-1.83,1.82c-.66,.44-1.46,.78-2.4,1.01-.94,.23-2.01,.34-3.23,.34h-7.25Zm2.66-2.37h4.29c1.32,0,2.36-.12,3.12-.37,.75-.25,1.35-.59,1.8-1.04,.63-.63,1.12-1.48,1.47-2.54,.35-1.06,.53-2.35,.53-3.87,0-2.1-.35-3.71-1.03-4.84-.69-1.13-1.53-1.88-2.51-2.27-.71-.27-1.86-.41-3.44-.41h-4.22v15.34Z"></path>
    </g>
  </g>
  <g>
    <g>
      <path class="cls-2" d="M596.53,195.51v43.01h-15.49V123.53h33.95c7.28,0,13.6,.84,18.98,2.53,5.38,1.69,9.83,4.08,13.36,7.18,3.53,3.1,6.17,6.85,7.9,11.23,1.74,4.39,2.61,9.28,2.61,14.69s-.94,10.25-2.81,14.69c-1.87,4.44-4.61,8.27-8.23,11.48-3.61,3.21-8.09,5.71-13.44,7.5-5.35,1.79-11.48,2.69-18.38,2.69h-18.46Zm0-12.36h18.46c4.44,0,8.36-.59,11.76-1.77,3.4-1.18,6.25-2.82,8.55-4.94,2.3-2.11,4.04-4.64,5.22-7.58,1.18-2.94,1.77-6.18,1.77-9.71,0-7.33-2.26-13.05-6.78-17.17-4.52-4.12-11.36-6.18-20.5-6.18h-18.46v47.35Z"></path>
      <path class="cls-2" d="M705.75,155.95c5.94,0,11.3,.99,16.09,2.97,4.79,1.98,8.85,4.79,12.2,8.43,3.34,3.64,5.91,8.04,7.7,13.2,1.79,5.16,2.69,10.93,2.69,17.29s-.9,12.2-2.69,17.33c-1.79,5.14-4.36,9.52-7.7,13.16-3.34,3.64-7.41,6.43-12.2,8.39-4.79,1.95-10.15,2.93-16.09,2.93s-11.3-.98-16.09-2.93c-4.79-1.95-8.87-4.75-12.24-8.39-3.37-3.64-5.97-8.03-7.78-13.16-1.82-5.14-2.73-10.91-2.73-17.33s.91-12.13,2.73-17.29c1.82-5.16,4.41-9.56,7.78-13.2,3.37-3.64,7.45-6.45,12.24-8.43,4.79-1.98,10.15-2.97,16.09-2.97Zm0,72.55c8.02,0,14.02-2.69,17.98-8.07,3.96-5.38,5.94-12.88,5.94-22.51s-1.98-17.23-5.94-22.63c-3.96-5.4-9.95-8.11-17.98-8.11-4.07,0-7.6,.7-10.59,2.09-3,1.39-5.5,3.4-7.5,6.02-2.01,2.62-3.51,5.85-4.49,9.67-.99,3.83-1.48,8.15-1.48,12.96s.49,9.12,1.48,12.92c.99,3.8,2.49,7,4.49,9.59,2.01,2.6,4.51,4.59,7.5,5.98,3,1.39,6.53,2.09,10.59,2.09Z"></path>
      <path class="cls-2" d="M751.5,157.23h11.23c1.18,0,2.14,.29,2.89,.88,.75,.59,1.26,1.28,1.52,2.09l15.57,52.32c.43,1.93,.83,3.79,1.2,5.58,.37,1.79,.69,3.6,.96,5.42,.43-1.82,.91-3.62,1.44-5.42,.53-1.79,1.1-3.65,1.69-5.58l17.17-52.64c.27-.8,.73-1.47,1.4-2.01,.67-.53,1.51-.8,2.53-.8h6.18c1.07,0,1.95,.27,2.65,.8,.69,.54,1.18,1.2,1.44,2.01l16.77,52.64c.59,1.87,1.11,3.72,1.56,5.54,.45,1.82,.9,3.61,1.32,5.38,.27-1.77,.61-3.61,1.04-5.54,.43-1.93,.88-3.72,1.36-5.38l15.89-52.32c.27-.86,.77-1.56,1.52-2.13,.75-.56,1.63-.84,2.65-.84h10.75l-26.32,81.29h-11.32c-1.39,0-2.35-.91-2.89-2.73l-17.98-55.13c-.43-1.23-.78-2.47-1.04-3.73-.27-1.26-.54-2.5-.8-3.73-.27,1.23-.54,2.49-.8,3.77-.27,1.28-.62,2.54-1.04,3.77l-18.22,55.05c-.59,1.82-1.69,2.73-3.29,2.73h-10.75l-26.32-81.29Z"></path>
      <path class="cls-2" d="M944.74,238.53h-6.34c-1.39,0-2.51-.21-3.37-.64-.86-.43-1.42-1.34-1.69-2.73l-1.61-7.54c-2.14,1.93-4.23,3.65-6.26,5.18-2.03,1.52-4.17,2.81-6.42,3.85-2.25,1.04-4.64,1.83-7.18,2.37-2.54,.53-5.36,.8-8.47,.8s-6.11-.44-8.87-1.33c-2.76-.89-5.15-2.21-7.18-3.99s-3.65-4.01-4.86-6.72c-1.2-2.71-1.8-5.92-1.8-9.62,0-3.22,.88-6.32,2.65-9.3,1.77-2.98,4.61-5.62,8.55-7.93s9.08-4.2,15.45-5.68c6.37-1.48,14.15-2.21,23.35-2.21v-6.38c0-6.35-1.35-11.16-4.05-14.41-2.7-3.26-6.7-4.89-12-4.89-3.48,0-6.41,.44-8.79,1.32-2.38,.88-4.44,1.87-6.18,2.97-1.74,1.1-3.24,2.09-4.49,2.97-1.26,.88-2.5,1.32-3.73,1.32-.96,0-1.81-.25-2.53-.76-.72-.51-1.3-1.14-1.73-1.89l-2.57-4.57c4.49-4.33,9.34-7.57,14.53-9.71,5.19-2.14,10.94-3.21,17.25-3.21,4.55,0,8.59,.75,12.12,2.25,3.53,1.5,6.5,3.58,8.91,6.26,2.41,2.68,4.23,5.91,5.46,9.71,1.23,3.8,1.85,7.97,1.85,12.52v52Zm-37.08-8.75c2.51,0,4.82-.25,6.9-.76,2.09-.51,4.05-1.23,5.9-2.17,1.85-.94,3.61-2.07,5.3-3.41,1.69-1.34,3.33-2.86,4.94-4.57v-16.77c-6.58,0-12.17,.42-16.77,1.25-4.6,.84-8.35,1.93-11.24,3.27-2.89,1.35-4.99,2.93-6.3,4.76-1.31,1.83-1.97,3.87-1.97,6.13s.35,4.01,1.04,5.57c.69,1.56,1.63,2.84,2.81,3.83,1.18,1,2.57,1.72,4.17,2.18,1.61,.46,3.34,.69,5.22,.69Z"></path>
      <path class="cls-2" d="M987.67,262.52c-.48,1.07-1.08,1.93-1.81,2.57s-1.83,.96-3.33,.96h-10.59l14.85-32.26-33.54-76.56h12.36c1.23,0,2.19,.31,2.89,.92,.69,.62,1.2,1.3,1.52,2.05l21.75,51.2c.48,1.18,.9,2.35,1.24,3.53,.35,1.18,.65,2.38,.92,3.61,.37-1.23,.75-2.43,1.12-3.61,.37-1.18,.8-2.38,1.28-3.61l21.11-51.12c.32-.86,.87-1.56,1.65-2.13,.77-.56,1.62-.84,2.53-.84h11.4l-45.34,105.29Z"></path>
      <path class="cls-2" d="M1123.94,226.17c4.76,0,9.01-.8,12.76-2.41,3.74-1.61,6.91-3.85,9.51-6.74,2.59-2.89,4.57-6.34,5.94-10.35,1.36-4.01,2.05-8.43,2.05-13.24V123.53h15.49v69.9c0,6.63-1.06,12.79-3.17,18.46-2.11,5.67-5.14,10.58-9.07,14.73-3.93,4.15-8.73,7.4-14.4,9.75-5.67,2.35-12.04,3.53-19.1,3.53s-13.43-1.18-19.1-3.53c-5.67-2.35-10.49-5.6-14.45-9.75-3.96-4.15-7-9.05-9.11-14.73-2.11-5.67-3.17-11.82-3.17-18.46V123.53h15.49v69.82c0,4.81,.68,9.23,2.05,13.24,1.36,4.01,3.34,7.46,5.94,10.35,2.59,2.89,5.78,5.15,9.55,6.78,3.77,1.63,8.04,2.45,12.8,2.45Z"></path>
      <path class="cls-2" d="M1194.16,238.53v-81.29h8.51c2.03,0,3.32,.99,3.85,2.97l1.12,8.83c3.53-3.9,7.48-7.06,11.84-9.47,4.36-2.41,9.4-3.61,15.13-3.61,4.44,0,8.36,.74,11.76,2.21,3.4,1.47,6.23,3.56,8.51,6.26,2.27,2.7,4,5.95,5.18,9.75,1.18,3.8,1.77,8,1.77,12.6v51.76h-14.29v-51.76c0-6.15-1.4-10.93-4.21-14.33-2.81-3.4-7.1-5.1-12.88-5.1-4.23,0-8.17,1.02-11.84,3.05-3.67,2.03-7.05,4.79-10.15,8.27v59.87h-14.29Z"></path>
      <path class="cls-2" d="M1302.5,131.71c0,1.39-.28,2.69-.84,3.89s-1.31,2.27-2.25,3.21c-.94,.94-2.02,1.67-3.25,2.21-1.23,.54-2.54,.8-3.93,.8s-2.69-.27-3.89-.8c-1.2-.53-2.27-1.27-3.21-2.21-.94-.94-1.67-2.01-2.21-3.21s-.8-2.5-.8-3.89,.27-2.71,.8-3.97c.54-1.26,1.27-2.35,2.21-3.29,.94-.94,2.01-1.67,3.21-2.21,1.2-.53,2.5-.8,3.89-.8s2.7,.27,3.93,.8c1.23,.54,2.31,1.27,3.25,2.21,.94,.94,1.69,2.03,2.25,3.29,.56,1.26,.84,2.58,.84,3.97Zm-3.21,25.52v81.29h-14.28v-81.29h14.28Z"></path>
      <path class="cls-2" d="M1327.7,238.53v-69.1l-8.99-1.04c-1.12-.27-2.05-.68-2.77-1.24s-1.08-1.38-1.08-2.45v-5.86h12.84v-4.49c0-4.98,.77-9.54,2.33-13.68,1.55-4.15,3.88-7.72,6.98-10.71,3.1-3,6.97-5.32,11.6-6.98,4.63-1.66,10.02-2.49,16.17-2.49,2.03,0,4.11,.14,6.22,.41,2.11,.27,3.94,.69,5.5,1.23l-.48,7.46c-.11,.68-.43,1.11-.96,1.29-.54,.18-1.31,.27-2.33,.27h-4.01c-9.47,0-16.36,1.96-20.66,5.88-4.31,3.92-6.46,9.83-6.46,17.72v4.08h49.11v79.69h-14.28v-69.34h-34.35v69.34h-14.36Z"></path>
      <path class="cls-2" d="M1448.15,155.95c4.87,0,9.36,.82,13.48,2.45,4.12,1.63,7.68,3.99,10.67,7.06,3,3.08,5.34,6.88,7.02,11.4,1.69,4.52,2.53,9.67,2.53,15.45,0,2.25-.24,3.75-.72,4.49-.48,.75-1.39,1.12-2.73,1.12h-54.09c.11,5.14,.8,9.6,2.09,13.4,1.28,3.8,3.05,6.97,5.3,9.51,2.25,2.54,4.92,4.44,8.03,5.7,3.1,1.26,6.58,1.89,10.43,1.89,3.58,0,6.67-.41,9.27-1.24,2.59-.83,4.83-1.73,6.7-2.69,1.87-.96,3.44-1.86,4.69-2.69,1.26-.83,2.34-1.24,3.25-1.24,1.18,0,2.09,.46,2.73,1.36l4.01,5.22c-1.77,2.14-3.88,4-6.34,5.58-2.46,1.58-5.1,2.88-7.9,3.89-2.81,1.02-5.71,1.78-8.71,2.29-3,.51-5.97,.76-8.91,.76-5.62,0-10.79-.95-15.53-2.85-4.73-1.9-8.83-4.68-12.28-8.35-3.45-3.66-6.14-8.2-8.06-13.6-1.93-5.4-2.89-11.61-2.89-18.62,0-5.67,.87-10.97,2.61-15.89,1.74-4.92,4.24-9.19,7.5-12.8,3.26-3.61,7.25-6.45,11.96-8.51,4.71-2.06,10-3.09,15.89-3.09Zm.32,10.51c-6.9,0-12.33,1.99-16.29,5.98-3.96,3.99-6.42,9.51-7.38,16.57h44.22c0-3.32-.45-6.35-1.36-9.11-.91-2.75-2.25-5.14-4.01-7.14s-3.92-3.56-6.46-4.65c-2.54-1.1-5.44-1.65-8.71-1.65Z"></path>
      <path class="cls-2" d="M1557.29,238.53c-2.03,0-3.32-.99-3.85-2.97l-1.28-9.87c-3.48,4.23-7.45,7.61-11.92,10.15-4.47,2.54-9.59,3.81-15.37,3.81-4.65,0-8.88-.9-12.68-2.69-3.8-1.79-7.04-4.43-9.71-7.9-2.68-3.48-4.74-7.81-6.18-13-1.44-5.19-2.17-11.15-2.17-17.9,0-5.99,.8-11.57,2.41-16.73,1.6-5.16,3.92-9.64,6.94-13.44,3.02-3.8,6.7-6.78,11.04-8.95,4.33-2.17,9.26-3.25,14.77-3.25,4.97,0,9.23,.84,12.76,2.53s6.69,4.05,9.47,7.1v-45.1h14.28v118.21h-8.51Zm-27.69-10.43c4.65,0,8.73-1.07,12.24-3.21,3.5-2.14,6.73-5.16,9.67-9.07v-39.32c-2.62-3.53-5.5-6.01-8.63-7.42-3.13-1.42-6.59-2.13-10.39-2.13-7.6,0-13.43,2.7-17.49,8.11-4.07,5.4-6.1,13.11-6.1,23.11,0,5.3,.45,9.83,1.36,13.6,.91,3.77,2.25,6.88,4.01,9.31,1.76,2.43,3.93,4.21,6.5,5.34s5.51,1.69,8.83,1.69Z"></path>
      <path class="cls-2" d="M1681.92,141.5c-.48,.8-.99,1.4-1.52,1.81-.54,.4-1.23,.6-2.09,.6-.91,0-1.97-.45-3.17-1.36-1.2-.91-2.73-1.91-4.57-3.01-1.85-1.1-4.07-2.1-6.66-3.01-2.6-.91-5.74-1.36-9.43-1.36-3.48,0-6.56,.47-9.23,1.4-2.68,.94-4.91,2.21-6.7,3.81s-3.14,3.49-4.05,5.66c-.91,2.17-1.36,4.51-1.36,7.02,0,3.21,.79,5.87,2.37,7.99,1.58,2.11,3.66,3.92,6.26,5.42,2.59,1.5,5.54,2.8,8.83,3.89,3.29,1.1,6.66,2.23,10.11,3.41,3.45,1.18,6.82,2.5,10.11,3.97,3.29,1.47,6.23,3.33,8.83,5.58,2.59,2.25,4.68,5,6.26,8.27,1.58,3.26,2.37,7.28,2.37,12.04,0,5.03-.86,9.75-2.57,14.16-1.71,4.41-4.21,8.25-7.5,11.52-3.29,3.26-7.33,5.83-12.12,7.7-4.79,1.87-10.23,2.81-16.33,2.81-7.44,0-14.22-1.35-20.34-4.05-6.13-2.7-11.36-6.35-15.69-10.95l4.49-7.38c.43-.59,.95-1.08,1.56-1.48,.62-.4,1.3-.6,2.05-.6,1.12,0,2.41,.6,3.85,1.81s3.25,2.53,5.42,3.97,4.79,2.77,7.86,3.97c3.08,1.2,6.83,1.81,11.28,1.81,3.69,0,6.98-.51,9.87-1.52,2.89-1.02,5.34-2.45,7.34-4.29s3.54-4.05,4.61-6.62c1.07-2.57,1.6-5.43,1.6-8.59,0-3.48-.79-6.33-2.37-8.55-1.58-2.22-3.65-4.08-6.22-5.58-2.57-1.5-5.5-2.77-8.79-3.81-3.29-1.04-6.66-2.11-10.11-3.21-3.45-1.1-6.82-2.37-10.11-3.81-3.29-1.44-6.22-3.32-8.79-5.62-2.57-2.3-4.64-5.18-6.22-8.63-1.58-3.45-2.37-7.72-2.37-12.8,0-4.07,.79-8,2.37-11.8,1.58-3.8,3.86-7.17,6.86-10.11,3-2.94,6.7-5.3,11.11-7.06,4.41-1.77,9.48-2.65,15.21-2.65,6.42,0,12.28,1.02,17.58,3.05,5.3,2.03,9.92,4.98,13.88,8.83l-3.77,7.38Z"></path>
      <path class="cls-2" d="M1761.29,171.68c-.43,.59-.86,1.04-1.28,1.36s-1.04,.48-1.85,.48-1.67-.33-2.61-1c-.94-.67-2.13-1.4-3.57-2.21-1.44-.8-3.2-1.54-5.26-2.21-2.06-.67-4.59-1-7.58-1-3.96,0-7.46,.71-10.51,2.13-3.05,1.42-5.6,3.46-7.66,6.14-2.06,2.68-3.61,5.91-4.65,9.71-1.04,3.8-1.56,8.05-1.56,12.76s.56,9.3,1.69,13.12c1.12,3.83,2.7,7.04,4.74,9.63,2.03,2.6,4.51,4.57,7.42,5.94,2.92,1.36,6.19,2.05,9.83,2.05s6.34-.41,8.59-1.24c2.25-.83,4.12-1.75,5.62-2.77,1.5-1.02,2.73-1.94,3.69-2.77,.96-.83,1.93-1.24,2.89-1.24,1.23,0,2.14,.46,2.73,1.36l4.01,5.22c-3.53,4.33-7.95,7.5-13.24,9.51-5.3,2.01-10.89,3.01-16.77,3.01-5.08,0-9.8-.94-14.17-2.81s-8.14-4.59-11.36-8.15c-3.21-3.56-5.74-7.93-7.58-13.12-1.85-5.19-2.77-11.1-2.77-17.74,0-6.04,.84-11.64,2.53-16.77,1.68-5.14,4.14-9.56,7.38-13.28,3.24-3.72,7.24-6.62,12-8.71,4.76-2.09,10.22-3.13,16.37-3.13,5.67,0,10.7,.92,15.09,2.77,4.39,1.85,8.27,4.45,11.64,7.82l-3.77,5.14Z"></path>
      <path class="cls-2" d="M1780.79,238.53V120.32h14.29v47.83c3.48-3.69,7.33-6.65,11.56-8.87,4.23-2.22,9.09-3.33,14.61-3.33,4.44,0,8.36,.74,11.76,2.21,3.4,1.47,6.23,3.56,8.51,6.26,2.27,2.7,4,5.95,5.18,9.75,1.18,3.8,1.77,8,1.77,12.6v51.76h-14.29v-51.76c0-6.15-1.4-10.93-4.21-14.33-2.81-3.4-7.1-5.1-12.88-5.1-4.23,0-8.17,1.02-11.84,3.05-3.67,2.03-7.05,4.79-10.15,8.27v59.87h-14.29Z"></path>
      <path class="cls-2" d="M1902.93,155.95c5.94,0,11.3,.99,16.09,2.97,4.79,1.98,8.85,4.79,12.2,8.43,3.34,3.64,5.91,8.04,7.7,13.2,1.79,5.16,2.69,10.93,2.69,17.29s-.9,12.2-2.69,17.33c-1.79,5.14-4.36,9.52-7.7,13.16-3.34,3.64-7.41,6.43-12.2,8.39-4.79,1.95-10.15,2.93-16.09,2.93s-11.3-.98-16.09-2.93c-4.79-1.95-8.87-4.75-12.24-8.39-3.37-3.64-5.97-8.03-7.78-13.16-1.82-5.14-2.73-10.91-2.73-17.33s.91-12.13,2.73-17.29c1.82-5.16,4.41-9.56,7.78-13.2,3.37-3.64,7.45-6.45,12.24-8.43,4.79-1.98,10.15-2.97,16.09-2.97Zm0,72.55c8.02,0,14.02-2.69,17.98-8.07,3.96-5.38,5.94-12.88,5.94-22.51s-1.98-17.23-5.94-22.63c-3.96-5.4-9.95-8.11-17.98-8.11-4.07,0-7.6,.7-10.59,2.09-3,1.39-5.5,3.4-7.5,6.02-2.01,2.62-3.51,5.85-4.49,9.67-.99,3.83-1.48,8.15-1.48,12.96s.49,9.12,1.48,12.92c.99,3.8,2.49,7,4.49,9.59,2.01,2.6,4.51,4.59,7.5,5.98,3,1.39,6.53,2.09,10.59,2.09Z"></path>
      <path class="cls-2" d="M1992.17,155.95c5.94,0,11.3,.99,16.09,2.97,4.79,1.98,8.85,4.79,12.2,8.43,3.34,3.64,5.91,8.04,7.7,13.2,1.79,5.16,2.69,10.93,2.69,17.29s-.9,12.2-2.69,17.33c-1.79,5.14-4.36,9.52-7.7,13.16-3.34,3.64-7.41,6.43-12.2,8.39-4.79,1.95-10.15,2.93-16.09,2.93s-11.3-.98-16.09-2.93c-4.79-1.95-8.87-4.75-12.24-8.39-3.37-3.64-5.97-8.03-7.78-13.16-1.82-5.14-2.73-10.91-2.73-17.33s.91-12.13,2.73-17.29c1.82-5.16,4.41-9.56,7.78-13.2,3.37-3.64,7.45-6.45,12.24-8.43,4.79-1.98,10.15-2.97,16.09-2.97Zm0,72.55c8.02,0,14.02-2.69,17.98-8.07,3.96-5.38,5.94-12.88,5.94-22.51s-1.98-17.23-5.94-22.63c-3.96-5.4-9.95-8.11-17.98-8.11-4.07,0-7.6,.7-10.59,2.09-3,1.39-5.5,3.4-7.5,6.02-2.01,2.62-3.51,5.85-4.49,9.67-.99,3.83-1.48,8.15-1.48,12.96s.49,9.12,1.48,12.92c.99,3.8,2.49,7,4.49,9.59,2.01,2.6,4.51,4.59,7.5,5.98,3,1.39,6.53,2.09,10.59,2.09Z"></path>
      <path class="cls-2" d="M2064.4,120.32v118.21h-14.28V120.32h14.28Z"></path>
      <path class="cls-2" d="M2222.49,181.07c0,8.61-1.36,16.45-4.09,23.51s-6.58,13.11-11.56,18.14c-4.98,5.03-10.94,8.92-17.9,11.68-6.96,2.76-14.66,4.13-23.11,4.13h-43.02V123.53h43.02c8.45,0,16.16,1.38,23.11,4.13,6.95,2.76,12.92,6.66,17.9,11.72,4.97,5.06,8.83,11.11,11.56,18.18s4.09,14.9,4.09,23.51Zm-15.97,0c0-7.06-.96-13.37-2.89-18.94-1.93-5.56-4.65-10.27-8.19-14.12s-7.81-6.79-12.84-8.83c-5.03-2.03-10.62-3.05-16.77-3.05h-27.37v89.8h27.37c6.15,0,11.74-1.02,16.77-3.05,5.03-2.03,9.31-4.96,12.84-8.79,3.53-3.82,6.26-8.52,8.19-14.08,1.93-5.56,2.89-11.88,2.89-18.94Z"></path>
      <path class="cls-2" d="M2260.53,131.71c0,1.39-.28,2.69-.84,3.89s-1.31,2.27-2.25,3.21c-.94,.94-2.02,1.67-3.25,2.21-1.23,.54-2.54,.8-3.93,.8s-2.69-.27-3.89-.8c-1.2-.53-2.27-1.27-3.21-2.21-.94-.94-1.67-2.01-2.21-3.21s-.8-2.5-.8-3.89,.27-2.71,.8-3.97c.54-1.26,1.27-2.35,2.21-3.29,.94-.94,2.01-1.67,3.21-2.21,1.2-.53,2.5-.8,3.89-.8s2.7,.27,3.93,.8c1.23,.54,2.31,1.27,3.25,2.21,.94,.94,1.69,2.03,2.25,3.29,.56,1.26,.84,2.58,.84,3.97Zm-3.21,25.52v81.29h-14.28v-81.29h14.28Z"></path>
      <path class="cls-2" d="M2329.06,170.63c-.64,1.18-1.63,1.77-2.97,1.77-.8,0-1.71-.29-2.73-.88-1.02-.59-2.26-1.24-3.73-1.97s-3.22-1.39-5.26-2.01c-2.03-.61-4.44-.92-7.22-.92-2.41,0-4.57,.31-6.5,.92-1.93,.62-3.57,1.46-4.93,2.53-1.36,1.07-2.41,2.31-3.13,3.73-.72,1.42-1.08,2.96-1.08,4.61,0,2.09,.6,3.83,1.81,5.22,1.2,1.39,2.79,2.6,4.77,3.61,1.98,1.02,4.23,1.91,6.74,2.69,2.51,.78,5.1,1.61,7.74,2.49s5.23,1.86,7.74,2.93c2.51,1.07,4.76,2.41,6.74,4.01,1.98,1.61,3.57,3.57,4.78,5.9,1.2,2.33,1.81,5.12,1.81,8.39,0,3.75-.67,7.21-2.01,10.39-1.34,3.18-3.32,5.94-5.94,8.27-2.62,2.33-5.83,4.16-9.63,5.5-3.8,1.34-8.19,2.01-13.16,2.01-5.67,0-10.81-.92-15.41-2.77-4.6-1.85-8.51-4.21-11.72-7.1l3.37-5.46c.43-.7,.94-1.23,1.52-1.61,.59-.37,1.36-.56,2.33-.56s1.98,.38,3.05,1.12c1.07,.75,2.37,1.58,3.89,2.49,1.52,.91,3.37,1.74,5.54,2.49,2.17,.75,4.88,1.12,8.14,1.12,2.78,0,5.22-.36,7.3-1.08s3.82-1.7,5.22-2.93c1.39-1.23,2.42-2.65,3.09-4.25s1-3.32,1-5.14c0-2.25-.6-4.1-1.81-5.58-1.2-1.47-2.8-2.73-4.77-3.77-1.98-1.04-4.24-1.95-6.78-2.73-2.54-.77-5.14-1.59-7.78-2.45-2.65-.86-5.24-1.83-7.78-2.93-2.54-1.1-4.8-2.47-6.78-4.13-1.98-1.66-3.57-3.7-4.77-6.14-1.2-2.43-1.81-5.39-1.81-8.87,0-3.1,.64-6.09,1.93-8.95,1.28-2.86,3.16-5.38,5.62-7.54,2.46-2.17,5.48-3.89,9.07-5.18,3.58-1.28,7.68-1.93,12.28-1.93,5.35,0,10.15,.84,14.4,2.53s7.93,4,11.04,6.94l-3.21,5.22Z"></path>
      <path class="cls-2" d="M2376.81,239.81c-6.42,0-11.36-1.79-14.81-5.38-3.45-3.58-5.18-8.75-5.18-15.49v-49.76h-9.79c-.86,0-1.58-.25-2.17-.76-.59-.51-.88-1.3-.88-2.37v-5.7l13.32-1.69,3.29-25.12c.11-.8,.45-1.46,1.04-1.97,.59-.51,1.34-.76,2.25-.76h7.22v28.01h23.27v10.35h-23.27v48.79c0,3.42,.83,5.97,2.49,7.62,1.66,1.66,3.8,2.49,6.42,2.49,1.5,0,2.79-.2,3.89-.6,1.1-.4,2.05-.84,2.85-1.32,.8-.48,1.48-.92,2.05-1.32,.56-.4,1.06-.6,1.48-.6,.75,0,1.42,.45,2.01,1.36l4.17,6.82c-2.46,2.3-5.43,4.11-8.91,5.42s-7.06,1.97-10.75,1.97Z"></path>
      <path class="cls-2" d="M2412.04,238.53v-81.29h8.19c1.55,0,2.62,.29,3.21,.88,.59,.59,.99,1.61,1.2,3.05l.96,12.68c2.78-5.67,6.22-10.1,10.31-13.28,4.09-3.18,8.89-4.78,14.4-4.78,2.25,0,4.28,.25,6.1,.76,1.82,.51,3.5,1.22,5.06,2.13l-1.85,10.67c-.38,1.34-1.2,2.01-2.49,2.01-.75,0-1.9-.25-3.45-.76-1.55-.51-3.72-.76-6.5-.76-4.97,0-9.14,1.44-12.48,4.33-3.34,2.89-6.14,7.09-8.39,12.6v51.76h-14.29Z"></path>
      <path class="cls-2" d="M2495.82,131.71c0,1.39-.28,2.69-.84,3.89s-1.31,2.27-2.25,3.21c-.94,.94-2.02,1.67-3.25,2.21-1.23,.54-2.54,.8-3.93,.8s-2.69-.27-3.89-.8c-1.2-.53-2.27-1.27-3.21-2.21-.94-.94-1.67-2.01-2.21-3.21s-.8-2.5-.8-3.89,.27-2.71,.8-3.97c.54-1.26,1.27-2.35,2.21-3.29,.94-.94,2.01-1.67,3.21-2.21,1.2-.53,2.5-.8,3.89-.8s2.7,.27,3.93,.8c1.23,.54,2.31,1.27,3.25,2.21,.94,.94,1.69,2.03,2.25,3.29,.56,1.26,.84,2.58,.84,3.97Zm-3.21,25.52v81.29h-14.28v-81.29h14.28Z"></path>
      <path class="cls-2" d="M2573.26,171.68c-.43,.59-.86,1.04-1.28,1.36s-1.04,.48-1.85,.48-1.67-.33-2.61-1c-.94-.67-2.13-1.4-3.57-2.21-1.44-.8-3.2-1.54-5.26-2.21-2.06-.67-4.59-1-7.58-1-3.96,0-7.46,.71-10.51,2.13-3.05,1.42-5.6,3.46-7.66,6.14-2.06,2.68-3.61,5.91-4.65,9.71-1.04,3.8-1.56,8.05-1.56,12.76s.56,9.3,1.69,13.12c1.12,3.83,2.7,7.04,4.74,9.63,2.03,2.6,4.51,4.57,7.42,5.94,2.92,1.36,6.19,2.05,9.83,2.05s6.34-.41,8.59-1.24c2.25-.83,4.12-1.75,5.62-2.77,1.5-1.02,2.73-1.94,3.69-2.77,.96-.83,1.93-1.24,2.89-1.24,1.23,0,2.14,.46,2.73,1.36l4.01,5.22c-3.53,4.33-7.95,7.5-13.24,9.51-5.3,2.01-10.89,3.01-16.77,3.01-5.08,0-9.8-.94-14.17-2.81s-8.14-4.59-11.36-8.15c-3.21-3.56-5.74-7.93-7.58-13.12-1.85-5.19-2.77-11.1-2.77-17.74,0-6.04,.84-11.64,2.53-16.77,1.68-5.14,4.14-9.56,7.38-13.28,3.24-3.72,7.24-6.62,12-8.71,4.76-2.09,10.22-3.13,16.37-3.13,5.67,0,10.7,.92,15.09,2.77,4.39,1.85,8.27,4.45,11.64,7.82l-3.77,5.14Z"></path>
      <path class="cls-2" d="M2617.4,239.81c-6.42,0-11.36-1.79-14.81-5.38-3.45-3.58-5.18-8.75-5.18-15.49v-49.76h-9.79c-.86,0-1.58-.25-2.17-.76-.59-.51-.88-1.3-.88-2.37v-5.7l13.32-1.69,3.29-25.12c.11-.8,.45-1.46,1.04-1.97,.59-.51,1.34-.76,2.25-.76h7.22v28.01h23.27v10.35h-23.27v48.79c0,3.42,.83,5.97,2.49,7.62,1.66,1.66,3.8,2.49,6.42,2.49,1.5,0,2.79-.2,3.89-.6,1.1-.4,2.05-.84,2.85-1.32,.8-.48,1.48-.92,2.05-1.32,.56-.4,1.06-.6,1.48-.6,.75,0,1.42,.45,2.01,1.36l4.17,6.82c-2.46,2.3-5.43,4.11-8.91,5.42s-7.06,1.97-10.75,1.97Z"></path>
    </g>
    <g>
      <path class="cls-3" d="M592.51,359.42c1.75,0,3.3-.15,4.66-.44,1.35-.29,2.55-.65,3.58-1.07,1.04-.42,1.92-.9,2.65-1.41,.73-.52,1.37-.99,1.91-1.41,.54-.42,1-.78,1.37-1.08,.37-.29,.7-.44,.99-.44,.24,0,.44,.05,.6,.14,.16,.09,.29,.21,.4,.34l2.59,3.23c-2.5,2.71-5.37,4.81-8.62,6.31-3.25,1.5-7.04,2.25-11.37,2.25-3.4,0-6.45-.61-9.16-1.83s-5-2.93-6.87-5.12c-1.87-2.19-3.3-4.8-4.3-7.82-1-3.03-1.49-6.36-1.49-9.99,0-4.96,.77-9.5,2.31-13.62,1.54-4.11,3.66-7.65,6.35-10.61,2.69-2.96,5.86-5.26,9.5-6.89,3.64-1.63,7.55-2.45,11.75-2.45,2.02,0,3.85,.17,5.49,.52,1.65,.34,3.15,.85,4.5,1.51,1.35,.66,2.58,1.46,3.68,2.39,1.1,.93,2.13,1.96,3.09,3.11l-2.55,3.11c-.21,.27-.45,.48-.72,.66-.27,.17-.6,.26-.99,.26-.48,0-.98-.27-1.51-.8s-1.25-1.11-2.17-1.73c-.92-.62-2.1-1.2-3.54-1.73-1.45-.53-3.32-.8-5.63-.8-3.08,0-5.96,.62-8.64,1.85-2.68,1.23-5,3-6.97,5.29-1.96,2.3-3.51,5.08-4.64,8.34-1.13,3.26-1.69,6.93-1.69,10.99,0,2.95,.38,5.59,1.16,7.92,.77,2.34,1.84,4.32,3.21,5.95,1.37,1.63,2.99,2.89,4.88,3.76,1.88,.88,3.95,1.31,6.21,1.31Z"></path>
      <path class="cls-3" d="M617.43,365.19l4.86-40.37h3.54c.74,0,1.33,.17,1.75,.52,.42,.34,.64,.88,.64,1.59,0,.11,0,.26-.02,.46-.01,.2-.03,.41-.04,.62-.01,.21-.03,.4-.04,.56s-.02,.25-.02,.28l-.56,7.33c1.73-3.72,3.66-6.58,5.79-8.6,2.14-2.02,4.39-3.03,6.75-3.03,1.12,0,2.23,.24,3.35,.72l-1.27,6.81c-1.25-.5-2.46-.76-3.62-.76-2.57,0-4.87,1.25-6.89,3.76-2.02,2.51-3.7,6.31-5.06,11.41l-2.23,18.71h-6.93Z"></path>
      <path class="cls-3" d="M676.04,333.5c0,1.75-.36,3.36-1.08,4.84-.72,1.47-2.03,2.8-3.94,3.98-1.91,1.18-4.54,2.21-7.88,3.09-3.35,.88-7.64,1.58-12.9,2.11-.03,.29-.04,.58-.04,.86v.86c0,3.56,.78,6.27,2.33,8.14,1.55,1.87,3.9,2.81,7.03,2.81,1.27,0,2.41-.13,3.4-.4,1-.26,1.88-.59,2.67-.98,.78-.38,1.47-.81,2.07-1.27,.6-.46,1.15-.89,1.65-1.27s.97-.71,1.39-.98,.85-.4,1.27-.4c.48,0,.92,.23,1.31,.68l1.75,2.19c-1.35,1.41-2.67,2.61-3.96,3.6-1.29,.99-2.61,1.83-3.96,2.49-1.35,.66-2.77,1.15-4.24,1.45-1.47,.3-3.06,.46-4.76,.46-2.31,0-4.38-.39-6.21-1.15-1.83-.77-3.38-1.86-4.66-3.29-1.27-1.42-2.26-3.14-2.95-5.16-.69-2.02-1.04-4.27-1.04-6.77,0-2.07,.22-4.13,.66-6.19,.44-2.06,1.07-4.01,1.91-5.87,.84-1.86,1.86-3.58,3.07-5.18,1.21-1.59,2.59-2.97,4.14-4.12,1.55-1.16,3.26-2.06,5.14-2.73,1.87-.66,3.88-1,6.03-1s3.81,.29,5.3,.88c1.49,.58,2.71,1.33,3.66,2.23,.95,.9,1.66,1.9,2.13,2.99,.46,1.09,.7,2.12,.7,3.11Zm-12.18-4.1c-1.67,0-3.21,.34-4.62,1.04s-2.65,1.64-3.74,2.85c-1.09,1.21-2.02,2.63-2.79,4.26-.77,1.63-1.37,3.39-1.79,5.28,4.09-.5,7.37-1.08,9.83-1.73s4.37-1.35,5.69-2.11,2.2-1.57,2.63-2.45,.64-1.79,.64-2.75c0-.48-.11-.98-.32-1.49-.21-.52-.55-.99-1.02-1.41-.47-.42-1.07-.78-1.81-1.05s-1.65-.42-2.71-.42Z"></path>
      <path class="cls-3" d="M710.16,365.19h-3.66c-.93,0-1.56-.24-1.89-.72-.33-.48-.5-1.06-.5-1.75l.72-8.08c-.96,1.69-1.98,3.21-3.09,4.58-1.1,1.37-2.27,2.54-3.5,3.5-1.23,.96-2.53,1.71-3.88,2.23-1.35,.53-2.76,.79-4.22,.79-1.59,0-3.04-.31-4.34-.94-1.3-.62-2.41-1.54-3.32-2.75-.92-1.21-1.63-2.69-2.13-4.46-.51-1.76-.76-3.79-.76-6.07s.3-4.72,.9-6.99c.6-2.27,1.45-4.41,2.55-6.43,1.1-2.02,2.42-3.87,3.96-5.55,1.54-1.69,3.26-3.15,5.16-4.38,1.9-1.23,3.93-2.19,6.11-2.87,2.18-.68,4.46-1.02,6.85-1.02,1.73,0,3.4,.14,5.04,.42,1.63,.28,3.25,.77,4.84,1.47l-4.82,39Zm-17.36-5.33c1.3,0,2.57-.4,3.82-1.2,1.25-.8,2.43-1.9,3.54-3.31,1.12-1.41,2.16-3.09,3.13-5.04,.97-1.95,1.82-4.08,2.57-6.41l1.71-13.64c-.58-.47-1.16-.71-1.73-.71h-1.69c-1.59,0-3.13,.26-4.62,.77-1.49,.52-2.88,1.24-4.18,2.16-1.3,.93-2.48,2.03-3.54,3.32-1.06,1.28-1.97,2.69-2.73,4.23-.76,1.54-1.35,3.17-1.77,4.9s-.64,3.51-.64,5.34c0,6.38,2.04,9.57,6.13,9.57Z"></path>
      <path class="cls-3" d="M724.21,357.59c0-.16,0-.36,.02-.62,.01-.25,.04-.62,.08-1.09,.04-.48,.1-1.1,.18-1.87,.08-.77,.2-1.78,.36-3.03l2.51-20.19h-4.5c-.35,0-.63-.1-.86-.3-.23-.2-.34-.51-.34-.94,0-.08,.01-.24,.04-.48,.03-.24,.06-.51,.1-.82,.04-.31,.08-.62,.12-.94,.04-.32,.07-.62,.1-.92l6.21-.84,2.99-12.46c.11-.4,.3-.72,.6-.98,.29-.25,.65-.38,1.07-.38h3.74l-1.75,13.9h10.59l-.6,5.14h-10.63l-2.43,19.83c-.13,1.09-.23,1.97-.3,2.63-.07,.66-.12,1.19-.16,1.59-.04,.4-.07,.68-.08,.84-.01,.16-.02,.28-.02,.36,0,1.35,.31,2.36,.94,3.01s1.48,.98,2.57,.98c.69,0,1.3-.1,1.83-.3,.53-.2,.99-.42,1.37-.66s.71-.46,.98-.66c.27-.2,.5-.3,.72-.3s.38,.05,.5,.16,.24,.28,.38,.52l1.47,3.38c-1.27,1.14-2.74,2.04-4.4,2.69-1.66,.65-3.32,.98-5,.98-2.57,0-4.61-.7-6.09-2.11-1.49-1.41-2.26-3.45-2.31-6.13Z"></path>
      <path class="cls-3" d="M760.76,324.86l-4.86,40.33h-6.97l4.86-40.33h6.97Zm2.67-12.66c0,.69-.14,1.33-.42,1.93-.28,.6-.65,1.13-1.11,1.59-.47,.46-.99,.83-1.57,1.09-.58,.27-1.19,.4-1.83,.4s-1.21-.13-1.79-.4c-.58-.27-1.09-.63-1.53-1.09-.44-.47-.79-1-1.05-1.59-.27-.6-.4-1.24-.4-1.93s.13-1.34,.4-1.95c.26-.61,.62-1.15,1.07-1.61s.97-.84,1.55-1.12c.58-.28,1.18-.42,1.79-.42s1.25,.13,1.83,.4c.58,.27,1.11,.63,1.57,1.09,.46,.47,.83,1.01,1.09,1.63s.4,1.28,.4,1.97Z"></path>
      <path class="cls-3" d="M767.37,365.19l4.82-40.37h3.54c1.59,0,2.39,.8,2.39,2.39l-.6,7.8c2.15-3.56,4.57-6.24,7.27-8.04,2.69-1.8,5.49-2.71,8.38-2.71s5.33,1.01,6.99,3.03c1.66,2.02,2.49,4.96,2.49,8.84,0,.53-.01,1.08-.04,1.63-.03,.56-.08,1.14-.16,1.75l-3.03,25.68h-7.09l3.03-25.68c.05-.53,.1-1.04,.14-1.53,.04-.49,.06-.96,.06-1.41,0-2.18-.41-3.79-1.21-4.84-.81-1.05-2.08-1.57-3.8-1.57-1.27,0-2.57,.34-3.88,1.04-1.31,.69-2.58,1.67-3.8,2.93-1.22,1.26-2.36,2.79-3.4,4.58-1.05,1.79-1.94,3.79-2.69,5.99l-2.31,20.5h-7.09Z"></path>
      <path class="cls-3" d="M838.92,336.05c-.03,1.33-.19,2.52-.5,3.58-.31,1.06-.68,2.04-1.13,2.95s-.94,1.75-1.47,2.55-1.02,1.59-1.47,2.39c-.45,.8-.83,1.61-1.13,2.45-.31,.84-.46,1.75-.46,2.73,0,1.11,.27,2.12,.82,3.03,.54,.9,1.14,1.83,1.79,2.79s1.25,2,1.79,3.13c.54,1.13,.82,2.46,.82,4,0,1.88-.44,3.67-1.31,5.35s-2.12,3.18-3.74,4.48c-1.62,1.3-3.59,2.33-5.91,3.08-2.32,.76-4.93,1.13-7.82,1.13-2.31,0-4.41-.24-6.31-.72-1.9-.48-3.52-1.15-4.86-2.03-1.34-.88-2.37-1.93-3.11-3.16-.73-1.23-1.09-2.59-1.09-4.08,0-2.1,.54-3.9,1.63-5.42,1.09-1.51,2.52-2.76,4.3-3.74,1.78-.98,3.8-1.7,6.07-2.15,2.27-.45,4.58-.68,6.95-.68,.96,0,1.9,.04,2.85,.12,.94,.08,1.88,.19,2.81,.32-.24-.5-.43-1.03-.58-1.57-.15-.54-.22-1.13-.22-1.77,0-.82,.13-1.67,.38-2.55,.25-.88,.67-1.86,1.25-2.95-1.01,.69-2.14,1.22-3.38,1.59-1.25,.37-2.67,.56-4.26,.56s-2.98-.25-4.32-.76c-1.34-.5-2.52-1.25-3.52-2.23-1.01-.98-1.81-2.21-2.39-3.68-.58-1.47-.88-3.19-.88-5.16s.35-3.79,1.05-5.63c.7-1.84,1.73-3.49,3.09-4.94,1.35-1.45,3.03-2.61,5.02-3.48,1.99-.88,4.29-1.31,6.89-1.31,2.92,0,5.46,.69,7.6,2.07h10.95l-.32,2.35c-.05,.45-.21,.86-.46,1.23s-.63,.6-1.13,.68l-5.02,.88c.24,.69,.42,1.41,.56,2.17,.13,.76,.2,1.56,.2,2.41Zm-7.41,30.14c0-.69-.07-1.33-.2-1.93-.13-.6-.31-1.16-.52-1.69-1.43-.24-2.78-.41-4.04-.52s-2.45-.16-3.56-.16c-2.18,0-4.06,.19-5.65,.58-1.59,.39-2.91,.9-3.94,1.53s-1.8,1.37-2.31,2.21c-.5,.84-.76,1.7-.76,2.61,0,1.91,.8,3.37,2.41,4.38,1.61,1.01,3.88,1.51,6.83,1.51,1.75,0,3.35-.23,4.8-.7,1.45-.47,2.68-1.08,3.7-1.85,1.02-.77,1.82-1.67,2.39-2.71,.57-1.04,.86-2.12,.86-3.26Zm-7.96-19.19c1.43,0,2.69-.31,3.78-.94s2.01-1.45,2.77-2.47c.76-1.02,1.33-2.17,1.73-3.44,.4-1.27,.6-2.56,.6-3.86,0-2.34-.59-4.1-1.77-5.3s-2.81-1.79-4.88-1.79c-1.43,0-2.69,.29-3.78,.88-1.09,.58-2,1.37-2.75,2.35-.74,.98-1.31,2.1-1.69,3.35-.38,1.25-.58,2.55-.58,3.9,0,2.39,.58,4.21,1.73,5.45,1.15,1.25,2.77,1.87,4.84,1.87Z"></path>
      <path class="cls-3" d="M885.82,359.42c1.75,0,3.3-.15,4.66-.44,1.35-.29,2.55-.65,3.58-1.07,1.04-.42,1.92-.9,2.65-1.41,.73-.52,1.37-.99,1.91-1.41,.54-.42,1-.78,1.37-1.08,.37-.29,.7-.44,.99-.44,.24,0,.44,.05,.6,.14,.16,.09,.29,.21,.4,.34l2.59,3.23c-2.5,2.71-5.37,4.81-8.62,6.31-3.25,1.5-7.04,2.25-11.37,2.25-3.4,0-6.45-.61-9.16-1.83s-5-2.93-6.87-5.12c-1.87-2.19-3.3-4.8-4.3-7.82-1-3.03-1.49-6.36-1.49-9.99,0-4.96,.77-9.5,2.31-13.62,1.54-4.11,3.66-7.65,6.35-10.61,2.69-2.96,5.86-5.26,9.5-6.89,3.64-1.63,7.55-2.45,11.75-2.45,2.02,0,3.85,.17,5.49,.52,1.65,.34,3.15,.85,4.5,1.51,1.35,.66,2.58,1.46,3.68,2.39,1.1,.93,2.13,1.96,3.09,3.11l-2.55,3.11c-.21,.27-.45,.48-.72,.66-.27,.17-.6,.26-.99,.26-.48,0-.98-.27-1.51-.8s-1.25-1.11-2.17-1.73c-.92-.62-2.1-1.2-3.54-1.73-1.45-.53-3.32-.8-5.63-.8-3.08,0-5.96,.62-8.64,1.85-2.68,1.23-5,3-6.97,5.29-1.96,2.3-3.51,5.08-4.64,8.34-1.13,3.26-1.69,6.93-1.69,10.99,0,2.95,.38,5.59,1.16,7.92,.77,2.34,1.84,4.32,3.21,5.95,1.37,1.63,2.99,2.89,4.88,3.76,1.88,.88,3.95,1.31,6.21,1.31Z"></path>
      <path class="cls-3" d="M922.01,324.86l-3.03,25.64c-.05,.53-.1,1.04-.14,1.51-.04,.48-.06,.94-.06,1.39,0,2.18,.4,3.8,1.21,4.86s2.09,1.59,3.84,1.59c1.22,0,2.47-.33,3.76-1,1.29-.66,2.53-1.61,3.74-2.83,1.21-1.22,2.33-2.69,3.36-4.42s1.94-3.65,2.71-5.77l2.51-20.98h7.05l-4.86,40.33h-3.5c-.82,0-1.46-.19-1.91-.56-.45-.37-.68-.94-.68-1.71,0-.03,.01-.26,.04-.72,.03-.45,.06-.94,.1-1.47,.04-.53,.08-1.02,.12-1.47,.04-.45,.06-.69,.06-.72l.28-3.23c-2.15,3.42-4.55,6.02-7.21,7.78-2.65,1.77-5.39,2.65-8.2,2.65-3,0-5.33-1.02-6.99-3.07-1.66-2.04-2.49-4.98-2.49-8.8,0-.53,.01-1.07,.04-1.63s.08-1.14,.16-1.75l3.03-25.64h7.05Z"></path>
      <path class="cls-3" d="M953.23,365.19l7.13-58.65h6.97l-7.13,58.65h-6.97Z"></path>
      <path class="cls-3" d="M974.96,357.59c0-.16,0-.36,.02-.62,.01-.25,.04-.62,.08-1.09,.04-.48,.1-1.1,.18-1.87,.08-.77,.2-1.78,.36-3.03l2.51-20.19h-4.5c-.35,0-.63-.1-.86-.3-.23-.2-.34-.51-.34-.94,0-.08,.01-.24,.04-.48,.03-.24,.06-.51,.1-.82,.04-.31,.08-.62,.12-.94,.04-.32,.07-.62,.1-.92l6.21-.84,2.99-12.46c.11-.4,.3-.72,.6-.98,.29-.25,.65-.38,1.07-.38h3.74l-1.75,13.9h10.59l-.6,5.14h-10.63l-2.43,19.83c-.13,1.09-.23,1.97-.3,2.63-.07,.66-.12,1.19-.16,1.59-.04,.4-.07,.68-.08,.84-.01,.16-.02,.28-.02,.36,0,1.35,.31,2.36,.94,3.01s1.48,.98,2.57,.98c.69,0,1.3-.1,1.83-.3,.53-.2,.99-.42,1.37-.66s.71-.46,.98-.66c.27-.2,.5-.3,.72-.3s.38,.05,.5,.16,.24,.28,.38,.52l1.47,3.38c-1.27,1.14-2.74,2.04-4.4,2.69-1.66,.65-3.32,.98-5,.98-2.57,0-4.61-.7-6.09-2.11-1.49-1.41-2.26-3.45-2.31-6.13Z"></path>
      <path class="cls-3" d="M1010,324.86l-3.03,25.64c-.05,.53-.1,1.04-.14,1.51-.04,.48-.06,.94-.06,1.39,0,2.18,.4,3.8,1.21,4.86s2.09,1.59,3.84,1.59c1.22,0,2.47-.33,3.76-1,1.29-.66,2.53-1.61,3.74-2.83,1.21-1.22,2.33-2.69,3.36-4.42s1.94-3.65,2.71-5.77l2.51-20.98h7.05l-4.86,40.33h-3.5c-.82,0-1.46-.19-1.91-.56-.45-.37-.68-.94-.68-1.71,0-.03,.01-.26,.04-.72,.03-.45,.06-.94,.1-1.47,.04-.53,.08-1.02,.12-1.47,.04-.45,.06-.69,.06-.72l.28-3.23c-2.15,3.42-4.55,6.02-7.21,7.78-2.65,1.77-5.39,2.65-8.2,2.65-3,0-5.33-1.02-6.99-3.07-1.66-2.04-2.49-4.98-2.49-8.8,0-.53,.01-1.07,.04-1.63s.08-1.14,.16-1.75l3.03-25.64h7.05Z"></path>
      <path class="cls-3" d="M1040.54,365.19l4.86-40.37h3.54c.74,0,1.33,.17,1.75,.52,.42,.34,.64,.88,.64,1.59,0,.11,0,.26-.02,.46-.01,.2-.03,.41-.04,.62-.01,.21-.03,.4-.04,.56s-.02,.25-.02,.28l-.56,7.33c1.73-3.72,3.66-6.58,5.79-8.6,2.14-2.02,4.39-3.03,6.75-3.03,1.12,0,2.23,.24,3.35,.72l-1.27,6.81c-1.25-.5-2.46-.76-3.62-.76-2.57,0-4.87,1.25-6.89,3.76-2.02,2.51-3.7,6.31-5.06,11.41l-2.23,18.71h-6.93Z"></path>
      <path class="cls-3" d="M1099.15,333.5c0,1.75-.36,3.36-1.08,4.84-.72,1.47-2.03,2.8-3.94,3.98-1.91,1.18-4.54,2.21-7.88,3.09-3.35,.88-7.64,1.58-12.9,2.11-.03,.29-.04,.58-.04,.86v.86c0,3.56,.78,6.27,2.33,8.14,1.55,1.87,3.9,2.81,7.03,2.81,1.27,0,2.41-.13,3.4-.4,1-.26,1.88-.59,2.67-.98,.78-.38,1.47-.81,2.07-1.27,.6-.46,1.15-.89,1.65-1.27s.97-.71,1.39-.98,.85-.4,1.27-.4c.48,0,.92,.23,1.31,.68l1.75,2.19c-1.35,1.41-2.67,2.61-3.96,3.6-1.29,.99-2.61,1.83-3.96,2.49-1.35,.66-2.77,1.15-4.24,1.45-1.47,.3-3.06,.46-4.76,.46-2.31,0-4.38-.39-6.21-1.15-1.83-.77-3.38-1.86-4.66-3.29-1.27-1.42-2.26-3.14-2.95-5.16-.69-2.02-1.04-4.27-1.04-6.77,0-2.07,.22-4.13,.66-6.19,.44-2.06,1.07-4.01,1.91-5.87,.84-1.86,1.86-3.58,3.07-5.18,1.21-1.59,2.59-2.97,4.14-4.12,1.55-1.16,3.26-2.06,5.14-2.73,1.87-.66,3.88-1,6.03-1s3.81,.29,5.3,.88c1.49,.58,2.71,1.33,3.66,2.23,.95,.9,1.66,1.9,2.13,2.99,.46,1.09,.7,2.12,.7,3.11Zm-12.18-4.1c-1.67,0-3.21,.34-4.62,1.04s-2.65,1.64-3.74,2.85c-1.09,1.21-2.02,2.63-2.79,4.26-.77,1.63-1.37,3.39-1.79,5.28,4.09-.5,7.37-1.08,9.83-1.73s4.37-1.35,5.69-2.11,2.2-1.57,2.63-2.45,.64-1.79,.64-2.75c0-.48-.11-.98-.32-1.49-.21-.52-.55-.99-1.02-1.41-.47-.42-1.07-.78-1.81-1.05s-1.65-.42-2.71-.42Z"></path>
      <path class="cls-3" d="M1148.64,365.19h-3.66c-.93,0-1.56-.24-1.89-.72-.33-.48-.5-1.06-.5-1.75l.72-8.08c-.96,1.69-1.98,3.21-3.09,4.58-1.1,1.37-2.27,2.54-3.5,3.5-1.23,.96-2.53,1.71-3.88,2.23-1.35,.53-2.76,.79-4.22,.79-1.59,0-3.04-.31-4.34-.94-1.3-.62-2.41-1.54-3.32-2.75-.92-1.21-1.63-2.69-2.13-4.46-.51-1.76-.76-3.79-.76-6.07s.3-4.72,.9-6.99c.6-2.27,1.45-4.41,2.55-6.43,1.1-2.02,2.42-3.87,3.96-5.55,1.54-1.69,3.26-3.15,5.16-4.38,1.9-1.23,3.93-2.19,6.11-2.87,2.18-.68,4.46-1.02,6.85-1.02,1.73,0,3.4,.14,5.04,.42,1.63,.28,3.25,.77,4.84,1.47l-4.82,39Zm-17.36-5.33c1.3,0,2.57-.4,3.82-1.2,1.25-.8,2.43-1.9,3.54-3.31,1.12-1.41,2.16-3.09,3.13-5.04,.97-1.95,1.82-4.08,2.57-6.41l1.71-13.64c-.58-.47-1.16-.71-1.73-.71h-1.69c-1.59,0-3.13,.26-4.62,.77-1.49,.52-2.88,1.24-4.18,2.16-1.3,.93-2.48,2.03-3.54,3.32-1.06,1.28-1.97,2.69-2.73,4.23-.76,1.54-1.35,3.17-1.77,4.9s-.64,3.51-.64,5.34c0,6.38,2.04,9.57,6.13,9.57Z"></path>
      <path class="cls-3" d="M1159.19,365.19l4.82-40.37h3.54c1.59,0,2.39,.8,2.39,2.39l-.6,7.8c2.15-3.56,4.57-6.24,7.27-8.04,2.69-1.8,5.49-2.71,8.38-2.71s5.33,1.01,6.99,3.03c1.66,2.02,2.49,4.96,2.49,8.84,0,.53-.01,1.08-.04,1.63-.03,.56-.08,1.14-.16,1.75l-3.03,25.68h-7.09l3.03-25.68c.05-.53,.1-1.04,.14-1.53,.04-.49,.06-.96,.06-1.41,0-2.18-.41-3.79-1.21-4.84-.81-1.05-2.08-1.57-3.8-1.57-1.27,0-2.57,.34-3.88,1.04-1.31,.69-2.58,1.67-3.8,2.93-1.22,1.26-2.36,2.79-3.4,4.58-1.05,1.79-1.94,3.79-2.69,5.99l-2.31,20.5h-7.09Z"></path>
      <path class="cls-3" d="M1228.34,365.19c-.93,0-1.56-.24-1.89-.72-.33-.48-.5-1.06-.5-1.75l.76-8.4c-1.01,1.73-2.11,3.29-3.3,4.7-1.19,1.41-2.45,2.61-3.76,3.6-1.31,1-2.68,1.77-4.1,2.31-1.42,.54-2.86,.82-4.32,.82-3.45,0-6.13-1.25-8.02-3.76-1.9-2.51-2.85-6.15-2.85-10.93,0-2.18,.23-4.35,.68-6.53,.45-2.18,1.09-4.26,1.93-6.25,.84-1.99,1.84-3.84,3.03-5.55s2.5-3.19,3.94-4.44c1.45-1.25,3.02-2.23,4.72-2.95,1.7-.72,3.48-1.08,5.33-1.08,1.96,0,3.76,.38,5.39,1.15,1.63,.77,3.02,1.87,4.16,3.3l2.75-22.18h6.97l-7.25,58.65h-3.66Zm-14.45-5.14c1.27,0,2.55-.39,3.84-1.17,1.29-.78,2.53-1.87,3.74-3.26,1.21-1.39,2.34-3.05,3.38-4.98s1.96-4.03,2.73-6.31l1.31-10.67c-1.01-1.41-2.22-2.4-3.62-2.99-1.41-.58-2.83-.88-4.26-.88-2.1,0-3.99,.62-5.67,1.87-1.69,1.25-3.12,2.86-4.3,4.84-1.18,1.98-2.09,4.19-2.73,6.63-.64,2.44-.96,4.84-.96,7.21,0,3.16,.57,5.57,1.71,7.23s2.75,2.49,4.82,2.49Z"></path>
      <path class="cls-3" d="M1282.53,359.42c1.75,0,3.3-.15,4.66-.44,1.35-.29,2.55-.65,3.58-1.07,1.04-.42,1.92-.9,2.65-1.41,.73-.52,1.37-.99,1.91-1.41,.54-.42,1-.78,1.37-1.08,.37-.29,.7-.44,.99-.44,.24,0,.44,.05,.6,.14,.16,.09,.29,.21,.4,.34l2.59,3.23c-2.5,2.71-5.37,4.81-8.62,6.31-3.25,1.5-7.04,2.25-11.37,2.25-3.4,0-6.45-.61-9.16-1.83s-5-2.93-6.87-5.12c-1.87-2.19-3.3-4.8-4.3-7.82-1-3.03-1.49-6.36-1.49-9.99,0-4.96,.77-9.5,2.31-13.62,1.54-4.11,3.66-7.65,6.35-10.61,2.69-2.96,5.86-5.26,9.5-6.89,3.64-1.63,7.55-2.45,11.75-2.45,2.02,0,3.85,.17,5.49,.52,1.65,.34,3.15,.85,4.5,1.51,1.35,.66,2.58,1.46,3.68,2.39,1.1,.93,2.13,1.96,3.09,3.11l-2.55,3.11c-.21,.27-.45,.48-.72,.66-.27,.17-.6,.26-.99,.26-.48,0-.98-.27-1.51-.8s-1.25-1.11-2.17-1.73c-.92-.62-2.1-1.2-3.54-1.73-1.45-.53-3.32-.8-5.63-.8-3.08,0-5.96,.62-8.64,1.85-2.68,1.23-5,3-6.97,5.29-1.96,2.3-3.51,5.08-4.64,8.34-1.13,3.26-1.69,6.93-1.69,10.99,0,2.95,.38,5.59,1.16,7.92,.77,2.34,1.84,4.32,3.21,5.95,1.37,1.63,2.99,2.89,4.88,3.76,1.88,.88,3.95,1.31,6.21,1.31Z"></path>
      <path class="cls-3" d="M1321.83,365.75c-2.2,0-4.22-.38-6.05-1.13s-3.41-1.85-4.74-3.28c-1.33-1.43-2.36-3.19-3.11-5.26-.74-2.07-1.12-4.43-1.12-7.09,0-3.4,.53-6.6,1.59-9.6,1.06-3,2.51-5.63,4.36-7.88,1.84-2.26,4.02-4.03,6.53-5.33,2.51-1.3,5.22-1.95,8.14-1.95,2.2,0,4.22,.38,6.05,1.13s3.41,1.85,4.74,3.28,2.36,3.19,3.11,5.28c.74,2.08,1.12,4.44,1.12,7.07,0,3.37-.53,6.56-1.59,9.56s-2.51,5.63-4.36,7.88-4.03,4.04-6.55,5.35-5.23,1.97-8.12,1.97Zm.64-5.53c1.94,0,3.7-.53,5.29-1.59,1.59-1.06,2.95-2.47,4.06-4.24,1.12-1.76,1.98-3.8,2.59-6.11,.61-2.31,.92-4.72,.92-7.25,0-3.72-.73-6.52-2.19-8.4s-3.57-2.83-6.33-2.83c-1.97,0-3.74,.52-5.32,1.57-1.58,1.05-2.93,2.46-4.04,4.22-1.11,1.77-1.98,3.8-2.59,6.11-.61,2.31-.92,4.72-.92,7.25,0,3.72,.72,6.52,2.17,8.42,1.45,1.9,3.56,2.85,6.35,2.85Z"></path>
      <path class="cls-3" d="M1347.47,365.19l4.82-40.37h3.54c1.59,0,2.39,.8,2.39,2.39l-.6,7.8c2.15-3.56,4.57-6.24,7.27-8.04,2.69-1.8,5.49-2.71,8.38-2.71s5.33,1.01,6.99,3.03c1.66,2.02,2.49,4.96,2.49,8.84,0,.53-.01,1.08-.04,1.63-.03,.56-.08,1.14-.16,1.75l-3.03,25.68h-7.09l3.03-25.68c.05-.53,.1-1.04,.14-1.53,.04-.49,.06-.96,.06-1.41,0-2.18-.41-3.79-1.21-4.84-.81-1.05-2.08-1.57-3.8-1.57-1.27,0-2.57,.34-3.88,1.04-1.31,.69-2.58,1.67-3.8,2.93-1.22,1.26-2.36,2.79-3.4,4.58-1.05,1.79-1.94,3.79-2.69,5.99l-2.31,20.5h-7.09Z"></path>
      <path class="cls-3" d="M1416.62,365.19c-.93,0-1.56-.24-1.89-.72-.33-.48-.5-1.06-.5-1.75l.76-8.4c-1.01,1.73-2.11,3.29-3.3,4.7-1.19,1.41-2.45,2.61-3.76,3.6-1.31,1-2.68,1.77-4.1,2.31-1.42,.54-2.86,.82-4.32,.82-3.45,0-6.13-1.25-8.02-3.76-1.9-2.51-2.85-6.15-2.85-10.93,0-2.18,.23-4.35,.68-6.53,.45-2.18,1.09-4.26,1.93-6.25,.84-1.99,1.84-3.84,3.03-5.55s2.5-3.19,3.94-4.44c1.45-1.25,3.02-2.23,4.72-2.95,1.7-.72,3.48-1.08,5.33-1.08,1.96,0,3.76,.38,5.39,1.15,1.63,.77,3.02,1.87,4.16,3.3l2.75-22.18h6.97l-7.25,58.65h-3.66Zm-14.45-5.14c1.27,0,2.55-.39,3.84-1.17,1.29-.78,2.53-1.87,3.74-3.26,1.21-1.39,2.34-3.05,3.38-4.98s1.96-4.03,2.73-6.31l1.31-10.67c-1.01-1.41-2.22-2.4-3.62-2.99-1.41-.58-2.83-.88-4.26-.88-2.1,0-3.99,.62-5.67,1.87-1.69,1.25-3.12,2.86-4.3,4.84-1.18,1.98-2.09,4.19-2.73,6.63-.64,2.44-.96,4.84-.96,7.21,0,3.16,.57,5.57,1.71,7.23s2.75,2.49,4.82,2.49Z"></path>
      <path class="cls-3" d="M1444.02,324.86l-4.86,40.33h-6.97l4.86-40.33h6.97Zm2.67-12.66c0,.69-.14,1.33-.42,1.93-.28,.6-.65,1.13-1.11,1.59-.47,.46-.99,.83-1.57,1.09-.58,.27-1.19,.4-1.83,.4s-1.21-.13-1.79-.4c-.58-.27-1.09-.63-1.53-1.09-.44-.47-.79-1-1.05-1.59-.27-.6-.4-1.24-.4-1.93s.13-1.34,.4-1.95c.26-.61,.62-1.15,1.07-1.61s.97-.84,1.55-1.12c.58-.28,1.18-.42,1.79-.42s1.25,.13,1.83,.4c.58,.27,1.11,.63,1.57,1.09,.46,.47,.83,1.01,1.09,1.63s.4,1.28,.4,1.97Z"></path>
      <path class="cls-3" d="M1454.13,357.59c0-.16,0-.36,.02-.62,.01-.25,.04-.62,.08-1.09,.04-.48,.1-1.1,.18-1.87,.08-.77,.2-1.78,.36-3.03l2.51-20.19h-4.5c-.35,0-.63-.1-.86-.3-.23-.2-.34-.51-.34-.94,0-.08,.01-.24,.04-.48,.03-.24,.06-.51,.1-.82,.04-.31,.08-.62,.12-.94,.04-.32,.07-.62,.1-.92l6.21-.84,2.99-12.46c.11-.4,.3-.72,.6-.98,.29-.25,.65-.38,1.07-.38h3.74l-1.75,13.9h10.59l-.6,5.14h-10.63l-2.43,19.83c-.13,1.09-.23,1.97-.3,2.63-.07,.66-.12,1.19-.16,1.59-.04,.4-.07,.68-.08,.84-.01,.16-.02,.28-.02,.36,0,1.35,.31,2.36,.94,3.01s1.48,.98,2.57,.98c.69,0,1.3-.1,1.83-.3,.53-.2,.99-.42,1.37-.66s.71-.46,.98-.66c.27-.2,.5-.3,.72-.3s.38,.05,.5,.16,.24,.28,.38,.52l1.47,3.38c-1.27,1.14-2.74,2.04-4.4,2.69-1.66,.65-3.32,.98-5,.98-2.57,0-4.61-.7-6.09-2.11-1.49-1.41-2.26-3.45-2.31-6.13Z"></path>
      <path class="cls-3" d="M1490.68,324.86l-4.86,40.33h-6.97l4.86-40.33h6.97Zm2.67-12.66c0,.69-.14,1.33-.42,1.93-.28,.6-.65,1.13-1.11,1.59-.47,.46-.99,.83-1.57,1.09-.58,.27-1.19,.4-1.83,.4s-1.21-.13-1.79-.4c-.58-.27-1.09-.63-1.53-1.09-.44-.47-.79-1-1.05-1.59-.27-.6-.4-1.24-.4-1.93s.13-1.34,.4-1.95c.26-.61,.62-1.15,1.07-1.61s.97-.84,1.55-1.12c.58-.28,1.18-.42,1.79-.42s1.25,.13,1.83,.4c.58,.27,1.11,.63,1.57,1.09,.46,.47,.83,1.01,1.09,1.63s.4,1.28,.4,1.97Z"></path>
      <path class="cls-3" d="M1511.66,365.75c-2.2,0-4.22-.38-6.05-1.13s-3.41-1.85-4.74-3.28c-1.33-1.43-2.36-3.19-3.11-5.26-.74-2.07-1.12-4.43-1.12-7.09,0-3.4,.53-6.6,1.59-9.6,1.06-3,2.51-5.63,4.36-7.88,1.84-2.26,4.02-4.03,6.53-5.33,2.51-1.3,5.22-1.95,8.14-1.95,2.2,0,4.22,.38,6.05,1.13s3.41,1.85,4.74,3.28,2.36,3.19,3.11,5.28c.74,2.08,1.12,4.44,1.12,7.07,0,3.37-.53,6.56-1.59,9.56s-2.51,5.63-4.36,7.88-4.03,4.04-6.55,5.35-5.23,1.97-8.12,1.97Zm.64-5.53c1.94,0,3.7-.53,5.29-1.59,1.59-1.06,2.95-2.47,4.06-4.24,1.12-1.76,1.98-3.8,2.59-6.11,.61-2.31,.92-4.72,.92-7.25,0-3.72-.73-6.52-2.19-8.4s-3.57-2.83-6.33-2.83c-1.97,0-3.74,.52-5.32,1.57-1.58,1.05-2.93,2.46-4.04,4.22-1.11,1.77-1.98,3.8-2.59,6.11-.61,2.31-.92,4.72-.92,7.25,0,3.72,.72,6.52,2.17,8.42,1.45,1.9,3.56,2.85,6.35,2.85Z"></path>
      <path class="cls-3" d="M1537.3,365.19l4.82-40.37h3.54c1.59,0,2.39,.8,2.39,2.39l-.6,7.8c2.15-3.56,4.57-6.24,7.27-8.04,2.69-1.8,5.49-2.71,8.38-2.71s5.33,1.01,6.99,3.03c1.66,2.02,2.49,4.96,2.49,8.84,0,.53-.01,1.08-.04,1.63-.03,.56-.08,1.14-.16,1.75l-3.03,25.68h-7.09l3.03-25.68c.05-.53,.1-1.04,.14-1.53,.04-.49,.06-.96,.06-1.41,0-2.18-.41-3.79-1.21-4.84-.81-1.05-2.08-1.57-3.8-1.57-1.27,0-2.57,.34-3.88,1.04-1.31,.69-2.58,1.67-3.8,2.93-1.22,1.26-2.36,2.79-3.4,4.58-1.05,1.79-1.94,3.79-2.69,5.99l-2.31,20.5h-7.09Z"></path>
      <path class="cls-3" d="M1605.14,331.31c-.21,.32-.42,.55-.64,.7-.21,.15-.48,.22-.8,.22-.37,0-.78-.15-1.21-.44-.44-.29-.97-.62-1.59-.98-.62-.36-1.39-.69-2.29-.99-.9-.3-1.99-.46-3.26-.46-1.19,0-2.28,.17-3.26,.5-.98,.33-1.83,.79-2.55,1.37-.72,.58-1.27,1.27-1.65,2.05-.38,.78-.58,1.61-.58,2.49,0,1.25,.41,2.24,1.23,2.99,.82,.74,1.86,1.39,3.11,1.93,1.25,.54,2.59,1.07,4.04,1.57,1.45,.51,2.79,1.14,4.04,1.91,1.25,.77,2.28,1.75,3.11,2.95,.82,1.19,1.23,2.75,1.23,4.66s-.37,3.64-1.09,5.33c-.73,1.7-1.78,3.19-3.15,4.48-1.37,1.29-3.01,2.32-4.94,3.09-1.93,.77-4.08,1.15-6.47,1.15-2.58,0-4.85-.46-6.83-1.37s-3.59-2.09-4.84-3.52l1.75-2.71c.21-.34,.46-.61,.76-.8,.29-.19,.66-.28,1.11-.28,.42,0,.85,.19,1.27,.56,.42,.37,.95,.79,1.59,1.25,.64,.47,1.44,.88,2.41,1.25,.97,.37,2.2,.56,3.68,.56,1.3,0,2.47-.2,3.52-.6s1.94-.93,2.67-1.59c.73-.66,1.29-1.44,1.67-2.33s.58-1.84,.58-2.85c0-1.35-.41-2.43-1.23-3.22-.82-.8-1.86-1.46-3.11-1.99-1.25-.53-2.59-1.03-4.02-1.49s-2.77-1.06-4.02-1.79c-1.25-.73-2.28-1.68-3.11-2.85-.82-1.17-1.23-2.72-1.23-4.66,0-1.7,.34-3.34,1.02-4.92,.68-1.58,1.65-2.98,2.93-4.2,1.27-1.22,2.82-2.2,4.64-2.93,1.82-.73,3.87-1.09,6.15-1.09,2.41,0,4.54,.4,6.39,1.21s3.43,1.9,4.76,3.28l-1.79,2.55Z"></path>
      <path class="cls-3" d="M1629.03,357.59c0-.16,0-.36,.02-.62,.01-.25,.04-.62,.08-1.09,.04-.48,.1-1.1,.18-1.87,.08-.77,.2-1.78,.36-3.03l2.51-20.19h-4.5c-.35,0-.63-.1-.86-.3-.23-.2-.34-.51-.34-.94,0-.08,.01-.24,.04-.48,.03-.24,.06-.51,.1-.82,.04-.31,.08-.62,.12-.94,.04-.32,.07-.62,.1-.92l6.21-.84,2.99-12.46c.11-.4,.3-.72,.6-.98,.29-.25,.65-.38,1.07-.38h3.74l-1.75,13.9h10.59l-.6,5.14h-10.63l-2.43,19.83c-.13,1.09-.23,1.97-.3,2.63-.07,.66-.12,1.19-.16,1.59-.04,.4-.07,.68-.08,.84-.01,.16-.02,.28-.02,.36,0,1.35,.31,2.36,.94,3.01s1.48,.98,2.57,.98c.69,0,1.3-.1,1.83-.3,.53-.2,.99-.42,1.37-.66s.71-.46,.98-.66c.27-.2,.5-.3,.72-.3s.38,.05,.5,.16,.24,.28,.38,.52l1.47,3.38c-1.27,1.14-2.74,2.04-4.4,2.69-1.66,.65-3.32,.98-5,.98-2.57,0-4.61-.7-6.09-2.11-1.49-1.41-2.26-3.45-2.31-6.13Z"></path>
      <path class="cls-3" d="M1667.18,365.75c-2.2,0-4.22-.38-6.05-1.13s-3.41-1.85-4.74-3.28c-1.33-1.43-2.36-3.19-3.11-5.26-.74-2.07-1.12-4.43-1.12-7.09,0-3.4,.53-6.6,1.59-9.6,1.06-3,2.51-5.63,4.36-7.88,1.84-2.26,4.02-4.03,6.53-5.33,2.51-1.3,5.22-1.95,8.14-1.95,2.2,0,4.22,.38,6.05,1.13s3.41,1.85,4.74,3.28,2.36,3.19,3.11,5.28c.74,2.08,1.12,4.44,1.12,7.07,0,3.37-.53,6.56-1.59,9.56s-2.51,5.63-4.36,7.88-4.03,4.04-6.55,5.35-5.23,1.97-8.12,1.97Zm.64-5.53c1.94,0,3.7-.53,5.29-1.59,1.59-1.06,2.95-2.47,4.06-4.24,1.12-1.76,1.98-3.8,2.59-6.11,.61-2.31,.92-4.72,.92-7.25,0-3.72-.73-6.52-2.19-8.4s-3.57-2.83-6.33-2.83c-1.97,0-3.74,.52-5.32,1.57-1.58,1.05-2.93,2.46-4.04,4.22-1.11,1.77-1.98,3.8-2.59,6.11-.61,2.31-.92,4.72-.92,7.25,0,3.72,.72,6.52,2.17,8.42,1.45,1.9,3.56,2.85,6.35,2.85Z"></path>
      <path class="cls-3" d="M1747.96,314.23h-24.96l-2.39,19.23h20.23l-.76,5.85h-20.19l-2.43,19.83h25.04l-.76,6.05h-32.53l7.05-57.05h32.45l-.76,6.09Z"></path>
      <path class="cls-3" d="M1750.66,365.19l4.86-40.37h3.54c1.59,0,2.39,.8,2.39,2.39l-.56,7.21c1.99-3.34,4.17-5.87,6.53-7.58s4.86-2.57,7.49-2.57,4.75,.94,6.05,2.81,1.95,4.55,1.95,8.02c2.02-3.69,4.28-6.42,6.79-8.18,2.51-1.76,5.14-2.65,7.9-2.65,2.97,0,5.2,.97,6.67,2.91s2.21,4.72,2.21,8.36c0,.61-.03,1.25-.08,1.91-.05,.66-.12,1.35-.2,2.07l-3.03,25.68h-6.97l3.03-25.68c.16-1.3,.24-2.48,.24-3.54,0-1.99-.33-3.46-.99-4.4-.66-.94-1.78-1.41-3.34-1.41-1.14,0-2.28,.29-3.42,.86-1.14,.57-2.24,1.41-3.3,2.51-1.06,1.1-2.05,2.47-2.97,4.1-.92,1.63-1.73,3.51-2.45,5.63l-2.59,21.94h-7.01l3.07-25.68c.08-.72,.15-1.39,.2-2.03,.05-.64,.08-1.23,.08-1.79,0-1.88-.31-3.28-.94-4.18-.62-.9-1.72-1.35-3.29-1.35-1.27,0-2.5,.32-3.68,.95-1.18,.64-2.3,1.56-3.34,2.77-1.05,1.21-2.02,2.68-2.93,4.42-.9,1.74-1.73,3.7-2.47,5.87l-2.51,21.02h-6.93Z"></path>
      <path class="cls-3" d="M1811.34,378.85l6.57-54.03h3.54c1.59,0,2.39,.8,2.39,2.39l-.68,8.6c1.01-1.75,2.11-3.34,3.3-4.76,1.19-1.42,2.45-2.63,3.76-3.64s2.69-1.79,4.12-2.33c1.43-.54,2.89-.82,4.38-.82,3.42,0,6.09,1.25,8,3.74,1.91,2.5,2.87,6.15,2.87,10.95,0,2.18-.23,4.35-.68,6.53s-1.09,4.25-1.93,6.23c-.84,1.98-1.85,3.82-3.03,5.53-1.18,1.71-2.5,3.2-3.94,4.46-1.45,1.26-3.02,2.25-4.72,2.97-1.7,.72-3.48,1.08-5.33,1.08-1.99,0-3.81-.39-5.45-1.18-1.65-.78-3.03-1.9-4.14-3.36l-2.15,17.64h-6.89Zm24.73-48.89c-1.27,0-2.57,.4-3.88,1.19s-2.58,1.91-3.8,3.35-2.36,3.13-3.4,5.1c-1.05,1.96-1.96,4.1-2.73,6.41l-1.27,10.27c1.01,1.46,2.22,2.49,3.64,3.09,1.42,.6,2.86,.9,4.32,.9,1.38,0,2.68-.29,3.9-.88,1.22-.58,2.34-1.37,3.35-2.37,1.01-.99,1.91-2.16,2.71-3.5s1.47-2.77,2.01-4.3,.96-3.11,1.25-4.74c.29-1.63,.44-3.25,.44-4.84,0-3.16-.57-5.56-1.71-7.21-1.14-1.65-2.75-2.47-4.82-2.47Z"></path>
      <path class="cls-3" d="M1868.68,365.75c-2.2,0-4.22-.38-6.05-1.13s-3.41-1.85-4.74-3.28c-1.33-1.43-2.36-3.19-3.11-5.26-.74-2.07-1.12-4.43-1.12-7.09,0-3.4,.53-6.6,1.59-9.6,1.06-3,2.51-5.63,4.36-7.88,1.84-2.26,4.02-4.03,6.53-5.33,2.51-1.3,5.22-1.95,8.14-1.95,2.2,0,4.22,.38,6.05,1.13s3.41,1.85,4.74,3.28,2.36,3.19,3.11,5.28c.74,2.08,1.12,4.44,1.12,7.07,0,3.37-.53,6.56-1.59,9.56s-2.51,5.63-4.36,7.88-4.03,4.04-6.55,5.35-5.23,1.97-8.12,1.97Zm.64-5.53c1.94,0,3.7-.53,5.29-1.59,1.59-1.06,2.95-2.47,4.06-4.24,1.12-1.76,1.98-3.8,2.59-6.11,.61-2.31,.92-4.72,.92-7.25,0-3.72-.73-6.52-2.19-8.4s-3.57-2.83-6.33-2.83c-1.97,0-3.74,.52-5.32,1.57-1.58,1.05-2.93,2.46-4.04,4.22-1.11,1.77-1.98,3.8-2.59,6.11-.61,2.31-.92,4.72-.92,7.25,0,3.72,.72,6.52,2.17,8.42,1.45,1.9,3.56,2.85,6.35,2.85Z"></path>
      <path class="cls-3" d="M1894.71,324.86h5.3c.53,0,.96,.13,1.29,.4,.33,.27,.52,.62,.58,1.08l3.7,25.96c.13,.93,.21,1.83,.22,2.69s.03,1.72,.06,2.57c.32-.85,.64-1.7,.98-2.57,.33-.86,.68-1.76,1.06-2.69l11.03-26.12c.16-.4,.42-.73,.78-.99s.76-.4,1.21-.4h2.95c.53,0,.94,.13,1.23,.4s.46,.6,.52,.99l4.5,26.12c.16,.93,.29,1.83,.38,2.71,.09,.88,.18,1.75,.26,2.63,.27-.85,.52-1.72,.78-2.61,.25-.89,.56-1.8,.94-2.73l10.19-25.96c.16-.42,.42-.78,.8-1.05,.37-.28,.8-.42,1.27-.42h5.1l-16.92,40.33h-5.38c-.61,0-1-.45-1.16-1.35l-4.9-27.35c-.08-.42-.15-.86-.2-1.29-.05-.44-.11-.87-.16-1.29-.13,.45-.27,.89-.4,1.31-.13,.42-.29,.86-.48,1.31l-11.67,27.31c-.37,.9-.9,1.35-1.59,1.35h-5.18l-7.09-40.33Z"></path>
      <path class="cls-3" d="M1983.06,333.5c0,1.75-.36,3.36-1.08,4.84-.72,1.47-2.03,2.8-3.94,3.98-1.91,1.18-4.54,2.21-7.88,3.09-3.35,.88-7.64,1.58-12.9,2.11-.03,.29-.04,.58-.04,.86v.86c0,3.56,.78,6.27,2.33,8.14,1.55,1.87,3.9,2.81,7.03,2.81,1.27,0,2.41-.13,3.4-.4,1-.26,1.88-.59,2.67-.98,.78-.38,1.47-.81,2.07-1.27,.6-.46,1.15-.89,1.65-1.27s.97-.71,1.39-.98,.85-.4,1.27-.4c.48,0,.92,.23,1.31,.68l1.75,2.19c-1.35,1.41-2.67,2.61-3.96,3.6-1.29,.99-2.61,1.83-3.96,2.49-1.35,.66-2.77,1.15-4.24,1.45-1.47,.3-3.06,.46-4.76,.46-2.31,0-4.38-.39-6.21-1.15-1.83-.77-3.38-1.86-4.66-3.29-1.27-1.42-2.26-3.14-2.95-5.16-.69-2.02-1.04-4.27-1.04-6.77,0-2.07,.22-4.13,.66-6.19,.44-2.06,1.07-4.01,1.91-5.87,.84-1.86,1.86-3.58,3.07-5.18,1.21-1.59,2.59-2.97,4.14-4.12,1.55-1.16,3.26-2.06,5.14-2.73,1.87-.66,3.88-1,6.03-1s3.81,.29,5.3,.88c1.49,.58,2.71,1.33,3.66,2.23,.95,.9,1.66,1.9,2.13,2.99,.46,1.09,.7,2.12,.7,3.11Zm-12.18-4.1c-1.67,0-3.21,.34-4.62,1.04s-2.65,1.64-3.74,2.85c-1.09,1.21-2.02,2.63-2.79,4.26-.77,1.63-1.37,3.39-1.79,5.28,4.09-.5,7.37-1.08,9.83-1.73s4.37-1.35,5.69-2.11,2.2-1.57,2.63-2.45,.64-1.79,.64-2.75c0-.48-.11-.98-.32-1.49-.21-.52-.55-.99-1.02-1.41-.47-.42-1.07-.78-1.81-1.05s-1.65-.42-2.71-.42Z"></path>
      <path class="cls-3" d="M1987.52,365.19l4.86-40.37h3.54c.74,0,1.33,.17,1.75,.52,.42,.34,.64,.88,.64,1.59,0,.11,0,.26-.02,.46-.01,.2-.03,.41-.04,.62-.01,.21-.03,.4-.04,.56s-.02,.25-.02,.28l-.56,7.33c1.73-3.72,3.66-6.58,5.79-8.6,2.14-2.02,4.39-3.03,6.75-3.03,1.12,0,2.23,.24,3.35,.72l-1.27,6.81c-1.25-.5-2.46-.76-3.62-.76-2.57,0-4.87,1.25-6.89,3.76-2.02,2.51-3.7,6.31-5.06,11.41l-2.23,18.71h-6.93Z"></path>
      <path class="cls-3" d="M2033.15,308.14h5.81c.66,0,1.19,.17,1.59,.5s.64,.76,.72,1.29l6.13,40.37c.05,.37,.1,.82,.14,1.35,.04,.53,.09,1.05,.14,1.55,.03,.58,.05,1.18,.08,1.79,.27-.85,.54-1.67,.82-2.47s.56-1.54,.86-2.23l17.08-40.37c.21-.45,.56-.86,1.04-1.23s1.04-.56,1.67-.56h1.71c.66,0,1.19,.17,1.59,.5s.65,.76,.76,1.29l7.13,40.37c.13,.69,.24,1.42,.32,2.19,.08,.77,.15,1.58,.2,2.43,.26-.85,.51-1.66,.74-2.43,.22-.77,.47-1.5,.74-2.19l16.05-40.37c.19-.45,.54-.86,1.05-1.23s1.09-.56,1.73-.56h5.81l-23.37,57.05h-6.73l-7.72-43.92c-.08-.42-.15-.89-.22-1.39-.07-.5-.13-1.02-.18-1.55-.19,.53-.37,1.05-.54,1.55-.17,.51-.35,.97-.54,1.39l-18.51,43.92h-6.69l-9.4-57.05Z"></path>
      <path class="cls-3" d="M2115.96,365.75c-2.2,0-4.22-.38-6.05-1.13s-3.41-1.85-4.74-3.28c-1.33-1.43-2.36-3.19-3.11-5.26-.74-2.07-1.12-4.43-1.12-7.09,0-3.4,.53-6.6,1.59-9.6,1.06-3,2.51-5.63,4.36-7.88,1.84-2.26,4.02-4.03,6.53-5.33,2.51-1.3,5.22-1.95,8.14-1.95,2.2,0,4.22,.38,6.05,1.13s3.41,1.85,4.74,3.28,2.36,3.19,3.11,5.28c.74,2.08,1.12,4.44,1.12,7.07,0,3.37-.53,6.56-1.59,9.56s-2.51,5.63-4.36,7.88-4.03,4.04-6.55,5.35-5.23,1.97-8.12,1.97Zm.64-5.53c1.94,0,3.7-.53,5.29-1.59,1.59-1.06,2.95-2.47,4.06-4.24,1.12-1.76,1.98-3.8,2.59-6.11,.61-2.31,.92-4.72,.92-7.25,0-3.72-.73-6.52-2.19-8.4s-3.57-2.83-6.33-2.83c-1.97,0-3.74,.52-5.32,1.57-1.58,1.05-2.93,2.46-4.04,4.22-1.11,1.77-1.98,3.8-2.59,6.11-.61,2.31-.92,4.72-.92,7.25,0,3.72,.72,6.52,2.17,8.42,1.45,1.9,3.56,2.85,6.35,2.85Z"></path>
      <path class="cls-3" d="M2141.6,365.19l4.86-40.37h3.54c.74,0,1.33,.17,1.75,.52,.42,.34,.64,.88,.64,1.59,0,.11,0,.26-.02,.46-.01,.2-.03,.41-.04,.62-.01,.21-.03,.4-.04,.56s-.02,.25-.02,.28l-.56,7.33c1.73-3.72,3.66-6.58,5.79-8.6,2.14-2.02,4.39-3.03,6.75-3.03,1.12,0,2.23,.24,3.35,.72l-1.27,6.81c-1.25-.5-2.46-.76-3.62-.76-2.57,0-4.87,1.25-6.89,3.76-2.02,2.51-3.7,6.31-5.06,11.41l-2.23,18.71h-6.93Z"></path>
      <path class="cls-3" d="M2170.23,365.19l7.13-58.65h6.97l-7.13,58.65h-6.97Z"></path>
      <path class="cls-3" d="M2215.74,365.19c-.93,0-1.56-.24-1.89-.72-.33-.48-.5-1.06-.5-1.75l.76-8.4c-1.01,1.73-2.11,3.29-3.3,4.7-1.19,1.41-2.45,2.61-3.76,3.6-1.31,1-2.68,1.77-4.1,2.31-1.42,.54-2.86,.82-4.32,.82-3.45,0-6.13-1.25-8.02-3.76-1.9-2.51-2.85-6.15-2.85-10.93,0-2.18,.23-4.35,.68-6.53,.45-2.18,1.09-4.26,1.93-6.25,.84-1.99,1.84-3.84,3.03-5.55s2.5-3.19,3.94-4.44c1.45-1.25,3.02-2.23,4.72-2.95,1.7-.72,3.48-1.08,5.33-1.08,1.96,0,3.76,.38,5.39,1.15,1.63,.77,3.02,1.87,4.16,3.3l2.75-22.18h6.97l-7.25,58.65h-3.66Zm-14.45-5.14c1.27,0,2.55-.39,3.84-1.17,1.29-.78,2.53-1.87,3.74-3.26,1.21-1.39,2.34-3.05,3.38-4.98s1.96-4.03,2.73-6.31l1.31-10.67c-1.01-1.41-2.22-2.4-3.62-2.99-1.41-.58-2.83-.88-4.26-.88-2.1,0-3.99,.62-5.67,1.87-1.69,1.25-3.12,2.86-4.3,4.84-1.18,1.98-2.09,4.19-2.73,6.63-.64,2.44-.96,4.84-.96,7.21,0,3.16,.57,5.57,1.71,7.23s2.75,2.49,4.82,2.49Z"></path>
      <path class="cls-3" d="M2232.1,338.44h18.2l-.76,5.81h-18.16l.72-5.81Z"></path>
      <path class="cls-3" d="M2280.08,359.42c1.75,0,3.3-.15,4.66-.44,1.35-.29,2.55-.65,3.58-1.07,1.04-.42,1.92-.9,2.65-1.41,.73-.52,1.37-.99,1.91-1.41,.54-.42,1-.78,1.37-1.08,.37-.29,.7-.44,.99-.44,.24,0,.44,.05,.6,.14,.16,.09,.29,.21,.4,.34l2.59,3.23c-2.5,2.71-5.37,4.81-8.62,6.31-3.25,1.5-7.04,2.25-11.37,2.25-3.4,0-6.45-.61-9.16-1.83s-5-2.93-6.87-5.12c-1.87-2.19-3.3-4.8-4.3-7.82-1-3.03-1.49-6.36-1.49-9.99,0-4.96,.77-9.5,2.31-13.62,1.54-4.11,3.66-7.65,6.35-10.61,2.69-2.96,5.86-5.26,9.5-6.89,3.64-1.63,7.55-2.45,11.75-2.45,2.02,0,3.85,.17,5.49,.52,1.65,.34,3.15,.85,4.5,1.51,1.35,.66,2.58,1.46,3.68,2.39,1.1,.93,2.13,1.96,3.09,3.11l-2.55,3.11c-.21,.27-.45,.48-.72,.66-.27,.17-.6,.26-.99,.26-.48,0-.98-.27-1.51-.8s-1.25-1.11-2.17-1.73c-.92-.62-2.1-1.2-3.54-1.73-1.45-.53-3.32-.8-5.63-.8-3.08,0-5.96,.62-8.64,1.85-2.68,1.23-5,3-6.97,5.29-1.96,2.3-3.51,5.08-4.64,8.34-1.13,3.26-1.69,6.93-1.69,10.99,0,2.95,.38,5.59,1.16,7.92,.77,2.34,1.84,4.32,3.21,5.95,1.37,1.63,2.99,2.89,4.88,3.76,1.88,.88,3.95,1.31,6.21,1.31Z"></path>
      <path class="cls-3" d="M2305.68,365.19l7.13-58.65h6.97l-7.13,58.65h-6.97Z"></path>
      <path class="cls-3" d="M2353.57,365.19h-3.66c-.93,0-1.56-.24-1.89-.72-.33-.48-.5-1.06-.5-1.75l.72-8.08c-.96,1.69-1.98,3.21-3.09,4.58-1.1,1.37-2.27,2.54-3.5,3.5-1.23,.96-2.53,1.71-3.88,2.23-1.35,.53-2.76,.79-4.22,.79-1.59,0-3.04-.31-4.34-.94-1.3-.62-2.41-1.54-3.32-2.75-.92-1.21-1.63-2.69-2.13-4.46-.51-1.76-.76-3.79-.76-6.07s.3-4.72,.9-6.99c.6-2.27,1.45-4.41,2.55-6.43,1.1-2.02,2.42-3.87,3.96-5.55,1.54-1.69,3.26-3.15,5.16-4.38,1.9-1.23,3.93-2.19,6.11-2.87,2.18-.68,4.46-1.02,6.85-1.02,1.73,0,3.4,.14,5.04,.42,1.63,.28,3.25,.77,4.84,1.47l-4.82,39Zm-17.36-5.33c1.3,0,2.57-.4,3.82-1.2,1.25-.8,2.43-1.9,3.54-3.31,1.12-1.41,2.16-3.09,3.13-5.04,.97-1.95,1.82-4.08,2.57-6.41l1.71-13.64c-.58-.47-1.16-.71-1.73-.71h-1.69c-1.59,0-3.13,.26-4.62,.77-1.49,.52-2.88,1.24-4.18,2.16-1.3,.93-2.48,2.03-3.54,3.32-1.06,1.28-1.97,2.69-2.73,4.23-.76,1.54-1.35,3.17-1.77,4.9s-.64,3.51-.64,5.34c0,6.38,2.04,9.57,6.13,9.57Z"></path>
      <path class="cls-3" d="M2390.08,331.31c-.21,.32-.42,.55-.64,.7-.21,.15-.48,.22-.8,.22-.37,0-.78-.15-1.21-.44-.44-.29-.97-.62-1.59-.98-.62-.36-1.39-.69-2.29-.99-.9-.3-1.99-.46-3.26-.46-1.19,0-2.28,.17-3.26,.5-.98,.33-1.83,.79-2.55,1.37-.72,.58-1.27,1.27-1.65,2.05-.38,.78-.58,1.61-.58,2.49,0,1.25,.41,2.24,1.23,2.99,.82,.74,1.86,1.39,3.11,1.93,1.25,.54,2.59,1.07,4.04,1.57,1.45,.51,2.79,1.14,4.04,1.91,1.25,.77,2.28,1.75,3.11,2.95,.82,1.19,1.23,2.75,1.23,4.66s-.37,3.64-1.09,5.33c-.73,1.7-1.78,3.19-3.15,4.48-1.37,1.29-3.01,2.32-4.94,3.09-1.93,.77-4.08,1.15-6.47,1.15-2.58,0-4.85-.46-6.83-1.37s-3.59-2.09-4.84-3.52l1.75-2.71c.21-.34,.46-.61,.76-.8,.29-.19,.66-.28,1.11-.28,.42,0,.85,.19,1.27,.56,.42,.37,.95,.79,1.59,1.25,.64,.47,1.44,.88,2.41,1.25,.97,.37,2.2,.56,3.68,.56,1.3,0,2.47-.2,3.52-.6s1.94-.93,2.67-1.59c.73-.66,1.29-1.44,1.67-2.33s.58-1.84,.58-2.85c0-1.35-.41-2.43-1.23-3.22-.82-.8-1.86-1.46-3.11-1.99-1.25-.53-2.59-1.03-4.02-1.49s-2.77-1.06-4.02-1.79c-1.25-.73-2.28-1.68-3.11-2.85-.82-1.17-1.23-2.72-1.23-4.66,0-1.7,.34-3.34,1.02-4.92,.68-1.58,1.65-2.98,2.93-4.2,1.27-1.22,2.82-2.2,4.64-2.93,1.82-.73,3.87-1.09,6.15-1.09,2.41,0,4.54,.4,6.39,1.21s3.43,1.9,4.76,3.28l-1.79,2.55Z"></path>
      <path class="cls-3" d="M2421.06,331.31c-.21,.32-.42,.55-.64,.7-.21,.15-.48,.22-.8,.22-.37,0-.78-.15-1.21-.44-.44-.29-.97-.62-1.59-.98-.62-.36-1.39-.69-2.29-.99-.9-.3-1.99-.46-3.26-.46-1.19,0-2.28,.17-3.26,.5-.98,.33-1.83,.79-2.55,1.37-.72,.58-1.27,1.27-1.65,2.05-.38,.78-.58,1.61-.58,2.49,0,1.25,.41,2.24,1.23,2.99,.82,.74,1.86,1.39,3.11,1.93,1.25,.54,2.59,1.07,4.04,1.57,1.45,.51,2.79,1.14,4.04,1.91,1.25,.77,2.28,1.75,3.11,2.95,.82,1.19,1.23,2.75,1.23,4.66s-.37,3.64-1.09,5.33c-.73,1.7-1.78,3.19-3.15,4.48-1.37,1.29-3.01,2.32-4.94,3.09-1.93,.77-4.08,1.15-6.47,1.15-2.58,0-4.85-.46-6.83-1.37s-3.59-2.09-4.84-3.52l1.75-2.71c.21-.34,.46-.61,.76-.8,.29-.19,.66-.28,1.11-.28,.42,0,.85,.19,1.27,.56,.42,.37,.95,.79,1.59,1.25,.64,.47,1.44,.88,2.41,1.25,.97,.37,2.2,.56,3.68,.56,1.3,0,2.47-.2,3.52-.6s1.94-.93,2.67-1.59c.73-.66,1.29-1.44,1.67-2.33s.58-1.84,.58-2.85c0-1.35-.41-2.43-1.23-3.22-.82-.8-1.86-1.46-3.11-1.99-1.25-.53-2.59-1.03-4.02-1.49s-2.77-1.06-4.02-1.79c-1.25-.73-2.28-1.68-3.11-2.85-.82-1.17-1.23-2.72-1.23-4.66,0-1.7,.34-3.34,1.02-4.92,.68-1.58,1.65-2.98,2.93-4.2,1.27-1.22,2.82-2.2,4.64-2.93,1.82-.73,3.87-1.09,6.15-1.09,2.41,0,4.54,.4,6.39,1.21s3.43,1.9,4.76,3.28l-1.79,2.55Z"></path>
      <path class="cls-3" d="M2450.68,358.9h22.57l-.76,6.29h-30.02l7.05-57.05h7.45l-6.29,50.76Z"></path>
      <path class="cls-3" d="M2511.4,333.5c0,1.75-.36,3.36-1.08,4.84-.72,1.47-2.03,2.8-3.94,3.98-1.91,1.18-4.54,2.21-7.88,3.09-3.35,.88-7.64,1.58-12.9,2.11-.03,.29-.04,.58-.04,.86v.86c0,3.56,.78,6.27,2.33,8.14,1.55,1.87,3.9,2.81,7.03,2.81,1.27,0,2.41-.13,3.4-.4,1-.26,1.88-.59,2.67-.98,.78-.38,1.47-.81,2.07-1.27,.6-.46,1.15-.89,1.65-1.27s.97-.71,1.39-.98,.85-.4,1.27-.4c.48,0,.92,.23,1.31,.68l1.75,2.19c-1.35,1.41-2.67,2.61-3.96,3.6-1.29,.99-2.61,1.83-3.96,2.49-1.35,.66-2.77,1.15-4.24,1.45-1.47,.3-3.06,.46-4.76,.46-2.31,0-4.38-.39-6.21-1.15-1.83-.77-3.38-1.86-4.66-3.29-1.27-1.42-2.26-3.14-2.95-5.16-.69-2.02-1.04-4.27-1.04-6.77,0-2.07,.22-4.13,.66-6.19,.44-2.06,1.07-4.01,1.91-5.87,.84-1.86,1.86-3.58,3.07-5.18,1.21-1.59,2.59-2.97,4.14-4.12,1.55-1.16,3.26-2.06,5.14-2.73,1.87-.66,3.88-1,6.03-1s3.81,.29,5.3,.88c1.49,.58,2.71,1.33,3.66,2.23,.95,.9,1.66,1.9,2.13,2.99,.46,1.09,.7,2.12,.7,3.11Zm-12.18-4.1c-1.67,0-3.21,.34-4.62,1.04s-2.65,1.64-3.74,2.85c-1.09,1.21-2.02,2.63-2.79,4.26-.77,1.63-1.37,3.39-1.79,5.28,4.09-.5,7.37-1.08,9.83-1.73s4.37-1.35,5.69-2.11,2.2-1.57,2.63-2.45,.64-1.79,.64-2.75c0-.48-.11-.98-.32-1.49-.21-.52-.55-.99-1.02-1.41-.47-.42-1.07-.78-1.81-1.05s-1.65-.42-2.71-.42Z"></path>
      <path class="cls-3" d="M2545.52,365.19h-3.66c-.93,0-1.56-.24-1.89-.72-.33-.48-.5-1.06-.5-1.75l.72-8.08c-.96,1.69-1.98,3.21-3.09,4.58-1.1,1.37-2.27,2.54-3.5,3.5-1.23,.96-2.53,1.71-3.88,2.23-1.35,.53-2.76,.79-4.22,.79-1.59,0-3.04-.31-4.34-.94-1.3-.62-2.41-1.54-3.32-2.75-.92-1.21-1.63-2.69-2.13-4.46-.51-1.76-.76-3.79-.76-6.07s.3-4.72,.9-6.99c.6-2.27,1.45-4.41,2.55-6.43,1.1-2.02,2.42-3.87,3.96-5.55,1.54-1.69,3.26-3.15,5.16-4.38,1.9-1.23,3.93-2.19,6.11-2.87,2.18-.68,4.46-1.02,6.85-1.02,1.73,0,3.4,.14,5.04,.42,1.63,.28,3.25,.77,4.84,1.47l-4.82,39Zm-17.36-5.33c1.3,0,2.57-.4,3.82-1.2,1.25-.8,2.43-1.9,3.54-3.31,1.12-1.41,2.16-3.09,3.13-5.04,.97-1.95,1.82-4.08,2.57-6.41l1.71-13.64c-.58-.47-1.16-.71-1.73-.71h-1.69c-1.59,0-3.13,.26-4.62,.77-1.49,.52-2.88,1.24-4.18,2.16-1.3,.93-2.48,2.03-3.54,3.32-1.06,1.28-1.97,2.69-2.73,4.23-.76,1.54-1.35,3.17-1.77,4.9s-.64,3.51-.64,5.34c0,6.38,2.04,9.57,6.13,9.57Z"></path>
      <path class="cls-3" d="M2556.07,365.19l4.86-40.37h3.54c.74,0,1.33,.17,1.75,.52,.42,.34,.64,.88,.64,1.59,0,.11,0,.26-.02,.46-.01,.2-.03,.41-.04,.62-.01,.21-.03,.4-.04,.56s-.02,.25-.02,.28l-.56,7.33c1.73-3.72,3.66-6.58,5.79-8.6,2.14-2.02,4.39-3.03,6.75-3.03,1.12,0,2.23,.24,3.35,.72l-1.27,6.81c-1.25-.5-2.46-.76-3.62-.76-2.57,0-4.87,1.25-6.89,3.76-2.02,2.51-3.7,6.31-5.06,11.41l-2.23,18.71h-6.93Z"></path>
      <path class="cls-3" d="M2584.02,365.19l4.82-40.37h3.54c1.59,0,2.39,.8,2.39,2.39l-.6,7.8c2.15-3.56,4.57-6.24,7.27-8.04,2.69-1.8,5.49-2.71,8.38-2.71s5.33,1.01,6.99,3.03c1.66,2.02,2.49,4.96,2.49,8.84,0,.53-.01,1.08-.04,1.63-.03,.56-.08,1.14-.16,1.75l-3.03,25.68h-7.09l3.03-25.68c.05-.53,.1-1.04,.14-1.53,.04-.49,.06-.96,.06-1.41,0-2.18-.41-3.79-1.21-4.84-.81-1.05-2.08-1.57-3.8-1.57-1.27,0-2.57,.34-3.88,1.04-1.31,.69-2.58,1.67-3.8,2.93-1.22,1.26-2.36,2.79-3.4,4.58-1.05,1.79-1.94,3.79-2.69,5.99l-2.31,20.5h-7.09Z"></path>
      <path class="cls-3" d="M2658.15,333.5c0,1.75-.36,3.36-1.08,4.84-.72,1.47-2.03,2.8-3.94,3.98-1.91,1.18-4.54,2.21-7.88,3.09-3.35,.88-7.64,1.58-12.9,2.11-.03,.29-.04,.58-.04,.86v.86c0,3.56,.78,6.27,2.33,8.14,1.55,1.87,3.9,2.81,7.03,2.81,1.27,0,2.41-.13,3.4-.4,1-.26,1.88-.59,2.67-.98,.78-.38,1.47-.81,2.07-1.27,.6-.46,1.15-.89,1.65-1.27s.97-.71,1.39-.98,.85-.4,1.27-.4c.48,0,.92,.23,1.31,.68l1.75,2.19c-1.35,1.41-2.67,2.61-3.96,3.6-1.29,.99-2.61,1.83-3.96,2.49-1.35,.66-2.77,1.15-4.24,1.45-1.47,.3-3.06,.46-4.76,.46-2.31,0-4.38-.39-6.21-1.15-1.83-.77-3.38-1.86-4.66-3.29-1.27-1.42-2.26-3.14-2.95-5.16-.69-2.02-1.04-4.27-1.04-6.77,0-2.07,.22-4.13,.66-6.19,.44-2.06,1.07-4.01,1.91-5.87,.84-1.86,1.86-3.58,3.07-5.18,1.21-1.59,2.59-2.97,4.14-4.12,1.55-1.16,3.26-2.06,5.14-2.73,1.87-.66,3.88-1,6.03-1s3.81,.29,5.3,.88c1.49,.58,2.71,1.33,3.66,2.23,.95,.9,1.66,1.9,2.13,2.99,.46,1.09,.7,2.12,.7,3.11Zm-12.18-4.1c-1.67,0-3.21,.34-4.62,1.04s-2.65,1.64-3.74,2.85c-1.09,1.21-2.02,2.63-2.79,4.26-.77,1.63-1.37,3.39-1.79,5.28,4.09-.5,7.37-1.08,9.83-1.73s4.37-1.35,5.69-2.11,2.2-1.57,2.63-2.45,.64-1.79,.64-2.75c0-.48-.11-.98-.32-1.49-.21-.52-.55-.99-1.02-1.41-.47-.42-1.07-.78-1.81-1.05s-1.65-.42-2.71-.42Z"></path>
      <path class="cls-3" d="M2662.61,365.19l4.86-40.37h3.54c.74,0,1.33,.17,1.75,.52,.42,.34,.64,.88,.64,1.59,0,.11,0,.26-.02,.46-.01,.2-.03,.41-.04,.62-.01,.21-.03,.4-.04,.56s-.02,.25-.02,.28l-.56,7.33c1.73-3.72,3.66-6.58,5.79-8.6,2.14-2.02,4.39-3.03,6.75-3.03,1.12,0,2.23,.24,3.35,.72l-1.27,6.81c-1.25-.5-2.46-.76-3.62-.76-2.57,0-4.87,1.25-6.89,3.76-2.02,2.51-3.7,6.31-5.06,11.41l-2.23,18.71h-6.93Z"></path>
      <path class="cls-3" d="M2716.52,331.31c-.21,.32-.42,.55-.64,.7-.21,.15-.48,.22-.8,.22-.37,0-.78-.15-1.21-.44-.44-.29-.97-.62-1.59-.98-.62-.36-1.39-.69-2.29-.99-.9-.3-1.99-.46-3.26-.46-1.19,0-2.28,.17-3.26,.5-.98,.33-1.83,.79-2.55,1.37-.72,.58-1.27,1.27-1.65,2.05-.38,.78-.58,1.61-.58,2.49,0,1.25,.41,2.24,1.23,2.99,.82,.74,1.86,1.39,3.11,1.93,1.25,.54,2.59,1.07,4.04,1.57,1.45,.51,2.79,1.14,4.04,1.91,1.25,.77,2.28,1.75,3.11,2.95,.82,1.19,1.23,2.75,1.23,4.66s-.37,3.64-1.09,5.33c-.73,1.7-1.78,3.19-3.15,4.48-1.37,1.29-3.01,2.32-4.94,3.09-1.93,.77-4.08,1.15-6.47,1.15-2.58,0-4.85-.46-6.83-1.37s-3.59-2.09-4.84-3.52l1.75-2.71c.21-.34,.46-.61,.76-.8,.29-.19,.66-.28,1.11-.28,.42,0,.85,.19,1.27,.56,.42,.37,.95,.79,1.59,1.25,.64,.47,1.44,.88,2.41,1.25,.97,.37,2.2,.56,3.68,.56,1.3,0,2.47-.2,3.52-.6s1.94-.93,2.67-1.59c.73-.66,1.29-1.44,1.67-2.33s.58-1.84,.58-2.85c0-1.35-.41-2.43-1.23-3.22-.82-.8-1.86-1.46-3.11-1.99-1.25-.53-2.59-1.03-4.02-1.49s-2.77-1.06-4.02-1.79c-1.25-.73-2.28-1.68-3.11-2.85-.82-1.17-1.23-2.72-1.23-4.66,0-1.7,.34-3.34,1.02-4.92,.68-1.58,1.65-2.98,2.93-4.2,1.27-1.22,2.82-2.2,4.64-2.93,1.82-.73,3.87-1.09,6.15-1.09,2.41,0,4.54,.4,6.39,1.21s3.43,1.9,4.76,3.28l-1.79,2.55Z"></path>
    </g>
  </g>
</svg>
