<?xml version="1.0" encoding="UTF-8"?>
<svg xmlns="http://www.w3.org/2000/svg" viewBox="0 0 390.5 85.15">
  <defs>
    <style>.cls-1{fill:#143d50;}.cls-2{fill:#24a159;}</style>
  </defs>
  <g id="Layer_2" data-name="Layer 2">
    <g id="Layer_1-2" data-name="Layer 1">
      <path class="cls-1" d="M193.73,84.93V72.72h6c2.23,0,3.48,1.39,3.48,3.11a2.74,2.74,0,0,1-2.12,2.8,3,3,0,0,1,2.36,3,3.21,3.21,0,0,1-3.56,3.29ZM201,76.2a1.56,1.56,0,0,0-1.72-1.6h-3.42v3.17h3.42A1.54,1.54,0,0,0,201,76.2m.24,5.14a1.68,1.68,0,0,0-1.87-1.68h-3.51V83h3.51a1.64,1.64,0,0,0,1.87-1.7"></path>
      <polygon class="cls-1" points="211.07 84.93 211.07 79.86 206.33 72.72 208.78 72.72 212.15 77.96 215.48 72.72 217.94 72.72 213.21 79.86 213.21 84.93 211.07 84.93"></polygon>
      <rect class="cls-1" x="228.9" y="72.72" width="3.15" height="12.22"></rect>
      <polygon class="cls-1" points="245.13 84.93 239.96 77.86 239.96 84.93 236.81 84.93 236.81 72.72 240.05 72.72 245 79.44 245 72.72 248.16 72.72 248.16 84.93 245.13 84.93"></polygon>
      <path class="cls-1" d="M252,83.21l1.67-2.36a5.51,5.51,0,0,0,3.9,1.61c1.08,0,1.74-.42,1.74-1,0-1.66-6.92-.33-6.92-5,0-2,1.74-3.89,4.87-3.89a7.43,7.43,0,0,1,5,1.71l-1.72,2.25A5.76,5.76,0,0,0,257,75.23c-.92,0-1.32.36-1.32.88,0,1.55,6.9.42,6.9,5,0,2.45-1.81,4.08-5.09,4.08A7.49,7.49,0,0,1,252,83.21"></path>
      <polygon class="cls-1" points="269 84.93 269 75.47 265.57 75.47 265.57 72.72 275.55 72.72 275.55 75.47 272.15 75.47 272.15 84.93 269 84.93"></polygon>
      <path class="cls-1" d="M286.43,84.93l-2.05-4.1h-1.62v4.1h-3.14V72.72h6.11A3.93,3.93,0,0,1,290,76.78a3.69,3.69,0,0,1-2.43,3.66L290,84.93Zm.35-8.17a1.37,1.37,0,0,0-1.52-1.3h-2.5v2.62h2.5a1.35,1.35,0,0,0,1.52-1.32"></path>
      <path class="cls-1" d="M294.28,80V72.72h3.2v7.16a2.58,2.58,0,0,0,5.15,0V72.72h3.19V80c0,3-1.85,5.18-5.75,5.18S294.28,83,294.28,80"></path>
      <path class="cls-1" d="M310,78.83c0-3.77,2.86-6.31,6.61-6.31a5.63,5.63,0,0,1,5.33,3.27l-2.71,1.29a2.94,2.94,0,0,0-2.62-1.78,3.54,3.54,0,0,0,0,7.07,2.94,2.94,0,0,0,2.62-1.78l2.71,1.28a5.67,5.67,0,0,1-5.33,3.28c-3.75,0-6.61-2.56-6.61-6.32"></path>
      <polygon class="cls-1" points="328.53 84.93 328.53 75.47 325.11 75.47 325.11 72.72 335.09 72.72 335.09 75.47 331.68 75.47 331.68 84.93 328.53 84.93"></polygon>
      <path class="cls-1" d="M339.15,80V72.72h3.21v7.16a2.57,2.57,0,0,0,5.14,0V72.72h3.19V80c0,3-1.85,5.18-5.75,5.18S339.15,83,339.15,80"></path>
      <path class="cls-1" d="M362.26,84.93l-2.05-4.1h-1.62v4.1h-3.14V72.72h6.11a3.93,3.93,0,0,1,4.25,4.06,3.69,3.69,0,0,1-2.43,3.66l2.49,4.49Zm.35-8.17a1.37,1.37,0,0,0-1.52-1.3h-2.5v2.62h2.5a1.35,1.35,0,0,0,1.52-1.32"></path>
      <polygon class="cls-1" points="370.11 84.93 370.11 72.72 379.06 72.72 379.06 75.47 373.26 75.47 373.26 77.37 378.94 77.37 378.94 80.11 373.26 80.11 373.26 82.19 379.06 82.19 379.06 84.93 370.11 84.93"></polygon>
      <polygon class="cls-2" points="131.74 47.56 126.64 47.56 118.4 21.98 118.4 55.57 109.92 55.57 109.92 0.63 118.56 0.63 129.15 32.57 139.83 0.63 148.77 0.63 148.77 55.57 139.98 55.57 139.98 21.98 131.74 47.56"></polygon>
      <path class="cls-2" d="M182,43.32h-10l-2,12.25h-8.79L171.38.63h11.45l10.36,54.94h-9.26Zm-1.18-7.53L177,11.38,173.1,35.79Z"></path>
      <path class="cls-2" d="M221.84,20.25V12.56c0-3.46-2-4.71-4.63-4.71s-4.63,1.25-4.63,4.71v3.76c0,2.83.94,4.09,3.53,5.58l6.44,3.61c5.26,3,8.4,5.41,8.4,11.3v7.93c0,8.47-5.26,11.45-13.58,11.45h-.16c-8.32,0-13.58-2.9-13.58-11.45V35.16h9v8.32c0,3.37,2,4.87,4.71,4.87s4.71-1.5,4.71-4.87V39.16c0-2.82-.86-4.24-3.61-5.73L212,29.82c-5.34-3.06-8.4-5.57-8.4-11.3V11.3c0-8.16,6-11.3,13.5-11.3h.16c7.54,0,13.5,3.14,13.5,11.3v9Z"></path>
      <polygon class="cls-2" points="269.4 8.63 260.22 8.63 260.22 55.57 251.12 55.57 251.12 8.63 241.94 8.63 241.94 0.63 269.4 0.63 269.4 8.63"></polygon>
      <polygon class="cls-2" points="281.96 55.57 281.96 0.63 306.06 0.63 306.06 8.63 291.06 8.63 291.06 23.7 303.62 23.7 303.62 31.71 291.06 31.71 291.06 47.56 306.29 47.56 306.29 55.57 281.96 55.57"></polygon>
      <path class="cls-2" d="M341.22,55.57l-7-21.9h-4.55v21.9h-9.11V.63h14.21c8.32,0,13.81,3.29,13.81,11.61v9.81c0,5.26-2.19,8.56-6,10.21l7.85,23.31ZM329.68,25.82h4.79c3,0,5-1.1,5-5V13.66c0-3.93-2-5-5-5h-4.79Z"></path>
      <polygon class="cls-2" points="379.44 55.57 370.33 55.57 370.33 36.02 359.27 0.63 368.84 0.63 374.96 26.13 381.08 0.63 390.5 0.63 379.44 36.02 379.44 55.57"></polygon>
      <path class="cls-2" d="M10.07,34.55A10.07,10.07,0,1,0,20.13,44.62,10.08,10.08,0,0,0,10.07,34.55"></path>
      <path class="cls-2" d="M42.64,54.69a10,10,0,0,0,3.3-19.53L32.58,29.43V44.62A10.08,10.08,0,0,0,42.64,54.69"></path>
      <path class="cls-2" d="M29.86,25.32V10.13A10.07,10.07,0,1,0,16.5,19.59Z"></path>
      <path class="cls-2" d="M75.22,54.69a10,10,0,0,0,3.29-19.53L65.15,29.43V44.62A10.08,10.08,0,0,0,75.22,54.69"></path>
      <path class="cls-2" d="M62.44,25.32V10.13a10.07,10.07,0,1,0-13.37,9.46Z"></path>
    </g>
  </g>
</svg>
