<?xml version="1.0" encoding="UTF-8"?>
<svg width="1490px" height="1297px" viewBox="0 0 1490 1297" version="1.1" xmlns="http://www.w3.org/2000/svg" xmlns:xlink="http://www.w3.org/1999/xlink">
    <title>mid-blob-blue</title>
    <defs>
        <linearGradient x1="-64.6952572%" y1="57.3991223%" x2="79.1919544%" y2="48.7001355%" id="linearGradient-1">
            <stop stop-color="#FFFFFF" offset="0%"></stop>
            <stop stop-color="#F2F8FA" offset="100%"></stop>
        </linearGradient>
    </defs>
    <g id="mid-blob-blue" stroke="none" stroke-width="1" fill="none" fill-rule="evenodd">
        <path d="M980.656392,99.1754602 C1036.18088,171.186649 1032.92186,288.333816 1126.55335,443.10266 C1219.09628,598.946187 1410.70692,791.33677 1415.07167,965.445931 C1419.43648,1140.62984 1237.64404,1297.53239 1038.42679,1340.51082 C838.120905,1383.4892 621.478971,1314.69301 409.190937,1235.14961 C196.902966,1156.68096 -9.94234666,1069.61465 -64.3826219,922.371274 C-118.82296,774.053155 -19.7695655,566.632785 80.3759949,419.398273 C180.521555,272.163761 281.759407,187.264601 384.087154,123.860431 C485.326268,60.4561987 588.743971,19.6217647 697.606731,11.0300338 C807.558187,3.51311171 924.043331,28.238955 980.656392,99.1754602 Z" id="Path-Copy-4" fill="url(#linearGradient-1)" transform="translate(667.648696, 681.737016) rotate(-23.000000) translate(-667.648696, -681.737016) "></path>
    </g>
</svg>