<?xml version="1.0" encoding="UTF-8"?>
<svg width="1490px" height="1297px" viewBox="0 0 1490 1297" version="1.1" xmlns="http://www.w3.org/2000/svg" xmlns:xlink="http://www.w3.org/1999/xlink">
    <title>mid-blob-white</title>
    <g id="mid-blob-white" stroke="none" stroke-width="1" fill="none" fill-rule="evenodd">
        <path d="M980.656392,99.0892245 C1036.18088,171.100414 1032.92186,288.247581 1126.55335,443.016424 C1219.09628,598.859952 1410.70692,791.250534 1415.07167,965.359696 C1419.43648,1140.5436 1237.64404,1297.44615 1038.42679,1340.42459 C838.120905,1383.40296 621.478971,1314.60678 409.190937,1235.06338 C196.902966,1156.59472 -9.94234666,1069.52841 -64.3826219,922.285038 C-118.82296,773.96692 -19.7695655,566.546549 80.3759949,419.312037 C180.521555,272.077525 281.759407,187.178366 384.087154,123.774195 C485.326268,60.3699629 588.743971,19.535529 697.606731,10.9437981 C807.558187,3.42687596 924.043331,28.1527193 980.656392,99.0892245 Z" id="Path-Copy-4" fill="#FEFEFE" transform="translate(667.648696, 681.650780) rotate(-23.000000) translate(-667.648696, -681.650780) "></path>
    </g>
</svg>