<?xml version="1.0" encoding="utf-8"?>
<!-- Generator: Adobe Illustrator 25.1.0, SVG Export Plug-In . SVG Version: 6.00 Build 0)  -->
<svg version="1.1" id="Layer_1" xmlns="http://www.w3.org/2000/svg" xmlns:xlink="http://www.w3.org/1999/xlink" x="0px" y="0px"
	 viewBox="0 0 150 150" style="enable-background:new 0 0 150 150;" xml:space="preserve">
<style type="text/css">
	.st0{fill:#F68E20;}
	.st1{fill:#FFFFFF;}
</style>
<g>
	<path class="st0" d="M74.9,0.8c-2.4,0-4.9,0.1-7.3,0.4s-4.9,0.7-7.3,1.1c-2.4,0.5-4.8,1.1-7.1,1.7c-2.4,0.7-4.6,1.6-6.9,2.5
		s-4.5,2-6.6,3.2c-2.1,1.2-4.2,2.4-6.2,3.7s-4,2.8-5.8,4.4c-1.8,1.6-3.7,3.2-5.4,4.9c-1.7,1.7-3.3,3.6-4.9,5.4s-3,3.8-4.4,5.8
		s-2.6,4.1-3.7,6.2c-1.2,2.1-2.2,4.4-3.2,6.6c-0.9,2.2-1.7,4.5-2.5,6.9S2.4,58,2,60.5c-0.5,2.4-0.8,4.8-1.1,7.3
		c-0.1,2.4-0.3,4.8-0.3,7.1s0.1,4.9,0.4,7.3s0.7,4.9,1.1,7.3c0.5,2.4,1.1,4.8,1.7,7.1c0.7,2.4,1.6,4.6,2.5,6.9
		c0.9,2.2,2,4.5,3.2,6.6s2.4,4.2,3.7,6.2c1.3,2,2.8,4,4.4,5.8c1.6,1.8,3.2,3.7,4.9,5.4c1.7,1.7,3.6,3.3,5.4,4.9s3.8,3,5.8,4.4
		c2,1.3,4.1,2.6,6.2,3.7c2.1,1.2,4.4,2.2,6.6,3.2c2.2,0.9,4.5,1.7,6.9,2.5c2.4,0.8,4.6,1.3,7.1,1.7c2.4,0.5,4.8,0.8,7.3,1.1
		c2.4,0.3,4.9,0.4,7.3,0.4s4.9-0.1,7.3-0.4s4.9-0.7,7.3-1.1c2.4-0.5,4.8-1.1,7.1-1.7c2.4-0.7,4.6-1.6,6.9-2.5s4.5-2,6.6-3.2
		c2.1-1.2,4.2-2.4,6.2-3.7c2-1.3,4-2.8,5.8-4.4c1.8-1.6,3.7-3.2,5.4-4.9c1.7-1.7,3.3-3.6,4.9-5.4c1.6-1.8,3-3.8,4.4-5.8
		c1.3-2,2.6-4.1,3.7-6.2c1.2-2.1,2.2-4.4,3.2-6.6c0.9-2.2,1.7-4.5,2.5-6.9c0.8-2.4,1.3-4.6,1.7-7.1c0.5-2.4,0.8-4.8,1.1-7.3
		c0.3-2.4,0.4-4.9,0.4-7.3s-0.1-4.9-0.4-7.3s-0.7-4.9-1.1-7.3c-0.5-2.4-1.1-4.8-1.7-7.1c-0.7-2.4-1.6-4.6-2.5-6.9
		c-0.9-2.2-2-4.5-3.2-6.6c-1.2-2.1-2.4-4.2-3.7-6.2c-1.3-2-2.8-4-4.4-5.8c-1.6-1.8-3.2-3.7-4.9-5.4c-1.7-1.7-3.6-3.3-5.4-4.9
		s-3.8-3-5.8-4.4c-2-1.3-4.1-2.6-6.2-3.7c-2.1-1.2-4.4-2.2-6.6-3.2S99,4.6,96.7,3.8S92,2.5,89.5,2.1c-2.4-0.5-4.8-0.8-7.3-1.1
		C79.8,0.9,77.4,0.8,74.9,0.8z"/>
</g>
<g>
	<path class="st0" d="M74.9,0.8c-2.4,0-4.9,0.1-7.3,0.4s-4.9,0.7-7.3,1.1c-2.4,0.5-4.8,1.1-7.1,1.7c-2.4,0.7-4.6,1.6-6.9,2.5
		s-4.5,2-6.6,3.2c-2.1,1.2-4.2,2.4-6.2,3.7s-4,2.8-5.8,4.4c-1.8,1.6-3.7,3.2-5.4,4.9c-1.7,1.7-3.3,3.6-4.9,5.4s-3,3.8-4.4,5.8
		s-2.6,4.1-3.7,6.2c-1.2,2.1-2.2,4.4-3.2,6.6c-0.9,2.2-1.7,4.5-2.5,6.9S2.4,58,2,60.5c-0.5,2.4-0.8,4.8-1.1,7.3
		c-0.1,2.4-0.3,4.8-0.3,7.1s0.1,4.9,0.4,7.3s0.7,4.9,1.1,7.3c0.5,2.4,1.1,4.8,1.7,7.1c0.7,2.4,1.6,4.6,2.5,6.9
		c0.9,2.2,2,4.5,3.2,6.6s2.4,4.2,3.7,6.2c1.3,2,2.8,4,4.4,5.8c1.6,1.8,3.2,3.7,4.9,5.4c1.7,1.7,3.6,3.3,5.4,4.9s3.8,3,5.8,4.4
		c2,1.3,4.1,2.6,6.2,3.7c2.1,1.2,4.4,2.2,6.6,3.2c2.2,0.9,4.5,1.7,6.9,2.5c2.4,0.8,4.6,1.3,7.1,1.7c2.4,0.5,4.8,0.8,7.3,1.1
		c2.4,0.3,4.9,0.4,7.3,0.4s4.9-0.1,7.3-0.4s4.9-0.7,7.3-1.1c2.4-0.5,4.8-1.1,7.1-1.7c2.4-0.7,4.6-1.6,6.9-2.5s4.5-2,6.6-3.2
		c2.1-1.2,4.2-2.4,6.2-3.7c2-1.3,4-2.8,5.8-4.4c1.8-1.6,3.7-3.2,5.4-4.9c1.7-1.7,3.3-3.6,4.9-5.4c1.6-1.8,3-3.8,4.4-5.8
		c1.3-2,2.6-4.1,3.7-6.2c1.2-2.1,2.2-4.4,3.2-6.6c0.9-2.2,1.7-4.5,2.5-6.9c0.8-2.4,1.3-4.6,1.7-7.1c0.5-2.4,0.8-4.8,1.1-7.3
		c0.3-2.4,0.4-4.9,0.4-7.3s-0.1-4.9-0.4-7.3s-0.7-4.9-1.1-7.3c-0.5-2.4-1.1-4.8-1.7-7.1c-0.7-2.4-1.6-4.6-2.5-6.9
		c-0.9-2.2-2-4.5-3.2-6.6c-1.2-2.1-2.4-4.2-3.7-6.2c-1.3-2-2.8-4-4.4-5.8c-1.6-1.8-3.2-3.7-4.9-5.4c-1.7-1.7-3.6-3.3-5.4-4.9
		s-3.8-3-5.8-4.4c-2-1.3-4.1-2.6-6.2-3.7c-2.1-1.2-4.4-2.2-6.6-3.2S99,4.6,96.7,3.8S92,2.5,89.5,2.1c-2.4-0.5-4.8-0.8-7.3-1.1
		C79.8,0.9,77.4,0.8,74.9,0.8z"/>
</g>
<g>
	<path class="st1" d="M75,63.7c-4.6,0-8.3,3.7-8.3,8.3c0,4.6,3.7,8.3,8.3,8.3c4.6,0,8.3-3.7,8.3-8.3C83.3,67.4,79.6,63.7,75,63.7z"
		/>
	<path class="st1" d="M47.3,85.5c-1.2-3.3-1.8-6.7-1.8-10.4c0-16.4,13.2-29.6,29.6-29.6s29.6,13.2,29.6,29.6c0,3.7-0.7,7.3-1.8,10.4
		c2.5,2.5,4.8,5.3,6.5,8.3c3-5.5,4.8-12,4.8-18.7c0-21.5-17.4-39.1-39.1-39.1S36.1,53.6,36.1,75.1c0,6.7,1.7,13.1,4.8,18.6
		C42.7,90.8,44.8,88,47.3,85.5z"/>
	<path class="st1" d="M75,87.5c-11.5,0-21.3,7.4-24.9,17.6c6.9,5.5,15.6,9,25.1,9s18.2-3.3,24.9-8.8C96.4,94.9,86.6,87.5,75,87.5z"
		/>
</g>
</svg>
