<?xml version="1.0" encoding="utf-8"?>
<!-- Generator: Adobe Illustrator 24.3.0, SVG Export Plug-In . SVG Version: 6.00 Build 0)  -->
<svg version="1.1" id="Capa_1" xmlns="http://www.w3.org/2000/svg" xmlns:xlink="http://www.w3.org/1999/xlink" x="0px" y="0px"
	 viewBox="0 0 451.8 451.8" style="enable-background:new 0 0 451.8 451.8;" xml:space="preserve">
<style type="text/css">
	.st0{fill:#E4060F;}
</style>
<path class="st0" d="M442.5,397.2L309.2,264c18.4-27.1,29.1-59.7,29.1-94.8C338.4,75.9,262.5,0,169.2,0C75.9,0,0,75.9,0,169.2
	c0,93.3,75.9,169.2,169.2,169.2c35.1,0,67.7-10.7,94.8-29.1l133.2,133.2c6.2,6.2,14.4,9.4,22.6,9.4s16.4-3.1,22.6-9.4
	C455,430,455,409.7,442.5,397.2z M64,169.2C64,111.2,111.2,64,169.2,64c58,0,105.2,47.2,105.2,105.2c0,58-47.2,105.2-105.2,105.2
	C111.2,274.4,64,227.2,64,169.2z"/>
</svg>
